<svg xmlns="http://www.w3.org/2000/svg" width="80" height="80" viewBox="0 0 80 80">
  <g fill="#FCD406" transform="translate(14 10)">
    <path d="M10.939 31.09L2.801 31.09C1.628 31.09.679 32.039.679 33.212L.679 52.878C.679 54.051 1.628 55 2.801 55L10.94 55C12.113 55 13.062 54.051 13.062 52.878L13.062 33.212C13.062 32.039 12.112 31.09 10.939 31.09L10.939 31.09zM8.817 50.756L4.922 50.756 4.922 35.334 8.817 35.334 8.817 50.756zM29.803 16.216L21.664 16.216C20.491 16.216 19.542 17.165 19.542 18.338L19.542 52.878C19.542 54.051 20.491 55 21.664 55L29.803 55C30.976 55 31.925 54.051 31.925 52.878L31.925 18.338C31.925 17.165 30.976 16.216 29.803 16.216zM27.681 50.756L23.786 50.756 23.786 20.46 27.681 20.46 27.681 50.756zM48.878.771L40.739.771C39.566.771 38.617 1.72 38.617 2.893L38.617 52.878C38.617 54.051 39.566 55 40.739 55L48.878 55C50.051 55 51 54.051 51 52.878L51 2.893C51 1.72 50.051.771 48.878.771zM46.756 50.756L42.861 50.756 42.861 5.015 46.756 5.015 46.756 50.756z"/>
  </g>
</svg>
