<svg xmlns="http://www.w3.org/2000/svg" width="80" height="80" viewBox="0 0 80 80">
  <path fill="#FCD406" d="M37.25,2.012 C36.993,1.93 30.884,0 24.614,0 C15.574,0 10.521,4.098 10.39,11.574 L10.39,24.607 L2.52,24.607 C1.985,24.607 1.471,24.822 1.094,25.203 C0.719,25.586 0.512,26.101 0.52,26.637 L0.696,38.518 C0.712,39.612 1.602,40.489 2.696,40.489 L10.391,40.489 L10.391,62 C10.391,63.105 11.286,64 12.391,64 L24.064,64 C25.168,64 26.064,63.105 26.064,62 L26.064,40.488 L31.97,40.488 C32.884,40.488 33.682,39.869 33.908,38.982 L36.942,27.101 C37.095,26.503 36.963,25.869 36.584,25.38 C36.205,24.891 35.622,24.607 35.005,24.607 L26.06,24.607 L26.057,16.783 C26.262,16.533 27.118,16.023 29.255,16.023 C31.068,16.023 33.387,16.382 36.143,17.095 C36.742,17.243 37.379,17.118 37.868,16.738 C38.357,16.361 38.643,15.777 38.643,15.158 L38.643,3.916 C38.642,3.047 38.079,2.275 37.25,2.012 L37.25,2.012 Z M34.642,12.643 C32.605,12.231 30.799,12.024 29.254,12.024 C22.405,12.024 22.074,16.18 22.06,16.479 L22.06,26.608 C22.06,27.713 22.956,28.608 24.06,28.608 L32.429,28.608 L30.416,36.489 L24.063,36.489 C22.959,36.489 22.063,37.384 22.063,38.489 L22.063,60 L14.39,60 L14.39,38.488 C14.39,37.383 13.494,36.488 12.39,36.488 L4.665,36.488 L4.548,28.607 L12.39,28.607 C13.494,28.607 14.39,27.712 14.39,26.607 L14.39,11.609 C14.448,8.342 15.571,4 24.614,4 C28.578,4 32.593,4.893 34.641,5.43 L34.641,12.643 L34.642,12.643 Z" transform="translate(20 7)"/>
</svg>
