<svg xmlns="http://www.w3.org/2000/svg" width="80" height="80" viewBox="0 0 80 80">
  <g fill="#FCD406" transform="translate(10.238)">
    <path d="M39.5036201 16.7966192L39.5036201 10.0119199C39.5042054 7.97530235 38.4450261 6.0851093 36.7076872 5.0223465 34.9703482 3.95958371 32.8051845 3.87738563 30.9922691 4.8053669 30.5261404 2.70869221 28.9480057 1.03636308 26.8818425.449600491 24.8156792-.137162097 22.5941437.456111734 21.0956071 1.99484788 19.996388.867640239 18.4886302.23197493 16.9141843.23197493 15.3397385.23197493 13.8319807.867640239 12.7327615 1.99484788 11.0790215.283938911 8.55140603-.250100985 6.34692842.64563566 4.14245081 1.5413723 2.70367805 3.68705898 2.71197565 6.06655406 2.69424367 12.5143457 2.69646017 15.3226482 2.71197565 16.5771859 1.43703867 17.6863201.708696652 19.295956.717127772 20.9857997L.717127772 30.7871523C.730583027 37.3660344 4.06552996 43.4931657 9.58311836 47.0761935L9.58311836 74.6117438C9.58311836 75.5298472 10.3273882 76.2741171 11.2454916 76.2741171 12.163595 76.2741171 12.9078648 75.5298472 12.9078648 74.6117438L12.9078648 46.1452645C12.9079117 45.5522235 12.592026 45.0040688 12.0788947 44.7067576 7.11537264 41.8263544 4.05579061 36.5258923 4.04409074 30.7871523L4.04409074 20.9835832C4.0380226 20.1253811 4.47332383 19.3242594 5.19666952 18.862395L5.26759744 18.822498C5.66201646 18.5839083 6.11436384 18.458171 6.57533105 18.4589924L17.3031797 18.4589924C18.6974727 18.4589924 19.8277705 19.5892902 19.8277705 20.9835832 19.8277705 22.3778762 18.6974727 23.5081741 17.3031797 23.5081741L10.7534291 23.5081741C9.83532573 23.5081741 9.09105588 24.2524439 9.09105588 25.1705473L9.09105588 31.7712773C9.09116067 32.4356869 9.48687007 33.0362238 10.0973458 33.2984442L19.2625636 37.2371605C20.1019544 37.5809641 21.061992 37.1884186 21.4200346 36.355002 21.7780772 35.5215853 21.4019312 34.5550046 20.5747302 34.1828267L12.4158024 30.6763274 12.4158024 26.8329205 17.2920972 26.8329205C20.0572463 26.830237 22.4439852 24.894419 23.0173106 22.189358 25.2332052 23.1208558 27.7934749 22.6001826 29.4695353 20.8771913 31.217762 22.6741678 33.9178147 23.1549502 36.1788736 22.0718836L36.1788736 31.2304519C36.1703215 39.5510443 29.427282 46.2940837 21.1066896 46.3026359 20.1885862 46.3026359 19.4443164 47.0469057 19.4443164 47.9650091 19.4443164 48.8831125 20.1885862 49.6273823 21.1066896 49.6273823 23.944646 49.6295791 26.7441254 48.9708781 29.2833495 47.7034624L29.2833495 74.6117438C29.2833495 75.5298472 30.0276193 76.2741171 30.9457227 76.2741171 31.8638261 76.2741171 32.6080959 75.5298472 32.6080959 74.6117438L32.6080959 45.5756246C36.9662204 42.0904759 39.5034468 36.812947 39.5036201 31.2326684L39.5036201 16.7966192zM6.03450563 15.1652769C6.03450563 12.7825419 6.03450563 8.92583603 6.04780461 6.07763655 6.04780461 4.6900763 7.17264445 3.56523647 8.5602047 3.56523647 9.94776495 3.56523647 11.0726048 4.6900763 11.0726048 6.07763655L11.0726048 15.1431119 6.56646506 15.1431119C6.38471226 15.1431119 6.20517595 15.1541944 6.02342314 15.1719264L6.03450563 15.1652769zM17.3031797 15.1364624L14.3840523 15.1364624 14.3840523 6.07098706C14.3840523 4.67669405 15.5143501 3.54639624 16.9086431 3.54639624 18.3029361 3.54639624 19.4332339 4.67669405 19.4332339 6.07098706L19.4332339 15.5420815C18.7521461 15.2734531 18.0264622 15.1358364 17.2943137 15.1364624L17.3031797 15.1364624zM25.2825712 19.3234265C23.8887847 19.3222044 22.7592025 18.1926222 22.7579804 16.7988357L22.7579804 6.07098706C22.7307296 5.15160022 23.2056536 4.29014562 23.9976344 3.8224051 24.7896152 3.35466457 25.7733107 3.35466457 26.5652915 3.8224051 27.3572723 4.29014562 27.8321963 5.15160022 27.8049455 6.07098706L27.8049455 16.7988357C27.8025055 18.1908926 26.6746281 19.3187699 25.2825712 19.32121L25.2825712 19.3234265zM33.6542828 19.3234265C32.2604963 19.3222044 31.1309141 18.1926222 31.129692 16.7988357L31.129692 10.0097034C31.1701381 8.64513495 32.2880069 7.55990909 33.6531746 7.55990909 35.0183423 7.55990909 36.1362111 8.64513495 36.1766571 10.0097034L36.1766571 16.8010522C36.1729982 18.1922434 35.0454767 19.3187741 33.6542828 19.32121L33.6542828 19.3234265zM58.9157065 52.8698014C59.1996152 52.9855935 59.5257998 52.8855141 59.6959137 52.6304196L66.5315924 42.7514896C66.6720044 42.5567935 66.6908625 42.2996371 66.5803554 42.0865403 66.4664751 41.874517 66.2469162 41.7405776 66.0062825 41.7363337L61.768339 41.7053027 62.9962787 35.2043151C63.0487663 34.9106529 62.8992558 34.6179748 62.6305566 34.4883864 62.3578286 34.3625021 62.0343056 34.4415447 61.8503494 34.6790052L54.5979691 43.7932435C54.4381302 43.9856152 54.4068415 44.2541766 54.5181752 44.4781413 54.6304892 44.701042 54.8581706 44.8422729 55.1077635 44.8438634L59.7912231 44.8748943 58.5322524 52.1405736C58.459114 52.4454152 58.6231035 52.7572797 58.9157065 52.8698014z"/>
  </g>
</svg>
