<?xml version="1.0" encoding="utf-8"?>
<!-- Generator: Adobe Illustrator 16.0.0, SVG Export Plug-In . SVG Version: 6.00 Build 0)  -->
<!DOCTYPE svg PUBLIC "-//W3C//DTD SVG 1.1//EN" "http://www.w3.org/Graphics/SVG/1.1/DTD/svg11.dtd">
<svg version="1.1" id="Layer_1" xmlns="http://www.w3.org/2000/svg" xmlns:xlink="http://www.w3.org/1999/xlink" x="0px" y="0px"
	 width="800px" height="315.834px" viewBox="0 0 800 315.834" enable-background="new 0 0 800 315.834" xml:space="preserve">
<g>
	<path fill="#F2F2F2" d="M103.453,259.997c-0.416-0.793-1.599-1.109-2.353-0.617c-4.088,2.674-9.134-2.104-5.851-6.095
		c0.729-0.886,0.638-2.042-0.35-2.7c-2.608-1.742-5.447-3.011-8.479-3.814c-0.832-0.221-1.956,0.275-2.116,1.201
		c-0.887,5.15-7.733,5.021-8.511-0.124c-0.143-0.938-1.3-1.399-2.116-1.201c-3.265,0.792-6.317,2.137-9.103,4.016
		c-0.702,0.474-1.202,1.569-0.617,2.353c2.932,3.914-1.118,9.014-5.501,6.422c-0.772-0.456-1.924-0.205-2.354,0.617
		c-1.271,2.428-2.2,4.969-2.745,7.656c-0.242,1.19,0.504,2.041,1.657,2.176c5.007,0.588,4.756,7.416,0.111,8.43
		c-0.889,0.193-1.462,1.263-1.2,2.115c0.764,2.488,1.826,4.836,3.216,7.038c0.458,0.728,1.578,1.179,2.353,0.616
		c4.072-2.95,8.982,1.464,6.198,5.776c-0.498,0.771-0.167,1.913,0.616,2.354c2.281,1.28,4.685,2.245,7.223,2.878
		c0.824,0.207,1.968-0.263,2.115-1.2c0.809-5.144,7.656-5.208,8.512-0.054c0.155,0.926,1.292,1.415,2.116,1.201
		c2.396-0.623,4.668-1.537,6.836-2.73c0.789-0.436,1.111-1.586,0.617-2.354c-2.798-4.354,2.205-8.738,6.266-5.719
		c0.767,0.57,1.896,0.096,2.353-0.617c1.411-2.203,2.489-4.551,3.272-7.046c0.268-0.856-0.318-1.917-1.202-2.115
		c-2.133-0.479-3.55-1.997-3.645-4.222c0.101-2.167,1.621-3.958,3.827-4.203c1.16-0.13,1.892-0.99,1.657-2.178
		C105.712,265.094,104.764,262.487,103.453,259.997z M97.373,273.785c-0.028,0.14-0.046,0.287-0.039,0.452
		c-0.01,0.203,0.019,0.381,0.064,0.547c0.295,2.821,1.896,5.182,4.378,6.37c-0.432,1.128-0.938,2.216-1.527,3.271
		c-2.769-1.236-6.102-0.816-8.402,1.328c-2.329,2.172-2.931,5.453-1.889,8.311c-0.967,0.457-1.953,0.848-2.97,1.18
		c-1.16-2.812-3.905-4.8-7.063-4.812c-3.194-0.013-5.979,2.021-7.126,4.878c-1.143-0.364-2.248-0.807-3.329-1.327
		c2.287-6.146-4.189-12.442-10.226-9.726c-0.569-1.041-1.059-2.111-1.479-3.222c2.877-1.366,4.775-4.368,4.428-7.685
		c-0.329-3.129-2.369-5.422-5.118-6.419c0.35-1.299,0.799-2.556,1.351-3.784c2.787,0.896,5.902,0.297,8.008-1.94
		c2.176-2.313,2.613-5.688,1.346-8.478c1.638-0.958,3.35-1.718,5.159-2.287c1.134,2.859,3.911,4.882,7.101,4.9
		c3.151,0.02,5.897-1.965,7.076-4.758c1.59,0.535,3.103,1.217,4.555,2.055c-1.296,2.671-1.146,5.832,0.875,8.285
		c2.145,2.602,5.614,3.356,8.631,2.252c0.564,1.262,1.019,2.555,1.37,3.891C99.66,268.097,97.682,270.553,97.373,273.785z"/>
	<path fill="#F2F2F2" d="M83.539,262.536c-4.281-1.574-9.262-0.224-12.18,3.273c-6.483,7.771,0.477,19.673,10.417,17.906
		c5.258-0.934,8.865-5.573,9.027-10.801C90.688,268.281,87.937,264.154,83.539,262.536z M79.759,280.463
		c-4.14-0.016-7.554-3.471-7.549-7.604c0.005-4.132,3.479-7.566,7.604-7.549c4.222,0.017,7.445,3.472,7.549,7.604
		C87.237,277.043,83.977,280.479,79.759,280.463z"/>
	<path fill="#F2F2F2" d="M268.402,82.026c-0.364,0.105-0.701,0.345-0.942,0.776c-1.151,2.06-2.305,4.12-3.457,6.18
		c-0.469,0.837-0.88,1.79-1.439,2.572c-1.14,1.595-2.559,0.976-3.963,0.19c-1.36-0.761-2.726-1.623-1.987-3.413
		c0.35-0.844,0.925-1.653,1.37-2.447c1.183-2.114,2.365-4.228,3.548-6.341c0.696-1.247-0.223-2.424-1.485-2.588
		c-6.245-0.812-12.514,2.181-15.807,7.559c-3.374,5.51-2.924,12.164,0.529,17.391c-5.261,9.38-10.662,18.695-15.754,28.166
		c-1.631,3.035-0.729,5.893,2.249,7.558c1.345,0.752,2.765,1.803,4.268,2.21c2.227,0.604,4.409-0.479,5.599-2.376
		c2.779-4.434,5.142-9.191,7.696-13.756c2.769-4.95,5.539-9.901,8.308-14.851c6.02,0.307,11.82-2.792,14.798-8.118
		c3.315-5.932,2.426-13.066-1.771-18.284C269.634,81.801,268.96,81.749,268.402,82.026z M268.67,99.501
		c-2.677,4.357-7.51,6.403-12.505,5.843c-0.575-0.064-1.216,0.371-1.485,0.852c-5.205,9.305-10.411,18.61-15.616,27.915
		c-0.276,0.495-0.519,1.052-0.848,1.515c-0.895,1.262-1.819,0.936-2.946,0.305c-0.981-0.549-3.079-1.243-3.58-2.336
		c-0.354-0.77,0.075-1.395,0.433-2.033c2.785-4.977,5.569-9.954,8.353-14.93c2.601-4.648,5.2-9.295,7.801-13.943
		c0.413-0.739,0.215-1.46-0.27-2.083c-3.35-4.308-3.557-10.311-0.491-14.832c2.245-3.312,5.81-5.169,9.641-5.454
		c-1.007,1.8-2.014,3.6-3.021,5.4c-0.744,1.329-1.335,2.591-1.151,4.179c0.277,2.388,1.926,3.725,3.88,4.817
		c1.962,1.098,3.974,1.844,6.178,0.846c1.448-0.656,2.228-1.798,2.969-3.123c1.021-1.826,2.042-3.651,3.063-5.477
		C271.111,90.866,271.029,95.659,268.67,99.501z"/>
	<path fill="#F2F2F2" d="M146.11,102.221c-9.297-1.378-18.749,3.257-23.241,11.542c-4.548,8.386-3.275,18.944,3.11,26.026
		c6.294,6.982,16.624,9.292,25.311,5.736c10.054-4.116,15.538-14.8,13.629-25.375C163.006,110.925,155.477,103.609,146.11,102.221z
		 M152.313,141.219c-6.886,3.958-15.797,3.22-21.888-1.906c-6.186-5.207-8.452-13.85-5.674-21.433
		c2.767-7.552,10.284-12.591,18.288-12.483c9.147,0.125,16.731,6.83,18.562,15.667C163.036,129,159.33,137.186,152.313,141.219z"/>
	<path fill="#F2F2F2" d="M155.386,120.409c-3.78,0.733-7.561,1.466-11.341,2.199c-0.726-3.74-1.452-7.481-2.176-11.221
		c-0.422-2.17-3.736-1.251-3.316,0.915c0.824,4.258,1.65,8.516,2.476,12.774c0.187,0.961,1.263,1.367,2.116,1.201
		c4.385-0.85,8.77-1.7,13.155-2.55C158.471,123.304,157.552,119.989,155.386,120.409z"/>
	<path fill="#F2F2F2" d="M138.301,94.155c-12.785,1.835-23.401,11.939-25.772,24.655c-2.358,12.66,3.502,25.802,14.662,32.324
		c11.122,6.5,25.313,5.238,35.231-2.917c11.286-9.281,14.101-25.594,7.316-38.359C163.542,98.693,150.975,92.335,138.301,94.155z
		 M163.155,142.754c-7.625,8.522-19.952,11.398-30.573,7.205c-10.643-4.201-17.585-15.06-17.149-26.452
		c0.437-11.455,8.306-21.671,19.262-25.037c12.416-3.813,25.815,1.845,32.075,13.124
		C172.102,121.629,170.778,134.233,163.155,142.754z"/>
	<path fill="#F2F2F2" d="M508.533,235.735c-2.697-1.662-5.395-3.323-8.093-4.984c-0.671-0.414-1.562-0.134-1.961,0.514
		c-0.522,0.849-1.045,1.697-1.567,2.545c-7.825-4.82-15.653-9.641-23.48-14.461c-0.771-0.475-1.541-0.949-2.312-1.424
		c0.533-0.867,1.067-1.734,1.602-2.602c0.413-0.67,0.135-1.561-0.514-1.96c-2.698-1.661-5.396-3.323-8.094-4.985
		c-0.671-0.412-1.562-0.133-1.961,0.516c-4.522,7.343-9.045,14.688-13.567,22.029c-0.413,0.671-0.135,1.562,0.514,1.961
		c2.697,1.662,5.396,3.324,8.094,4.984c0.522,0.322,1.027,0.26,1.415,0.004c0.205-0.108,0.395-0.272,0.546-0.518
		c0.521-0.848,1.044-1.696,1.566-2.545c3.354,2.066,6.709,4.131,10.062,6.197c-4.968,8.064-9.936,16.131-14.903,24.196
		c-0.565,0.919-1.132,1.838-1.696,2.757c-1.498-0.375-3.044-0.32-4.627,0.491c-1.418,0.727-2.343,1.894-3.152,3.208
		c-4.39,7.127-8.779,14.255-13.169,21.382c-2.144,3.479-4.286,6.96-6.43,10.439c-0.925,1.502-1.594,3.066-1.451,4.89
		c0.258,3.309,2.618,4.949,5.188,6.531c0.116,0.071,0.232,0.119,0.347,0.155c2.937,1.437,6.478,0.898,8.599-1.731
		c0.494-0.611,0.883-1.311,1.295-1.979c1.981-3.217,3.962-6.434,5.943-9.65c4.431-7.194,8.862-14.39,13.294-21.585
		c1.887-3.064,1.74-6.195-0.191-8.621c5.06-8.215,10.117-16.43,15.177-24.644c0.482-0.782,0.965-1.565,1.446-2.349
		c2.512,1.547,5.021,3.094,7.533,4.64c0.843,0.519,1.686,1.038,2.528,1.558c-0.534,0.867-1.067,1.734-1.602,2.602
		c-0.413,0.67-0.134,1.562,0.514,1.961c2.698,1.661,5.396,3.322,8.093,4.984c0.522,0.321,1.027,0.26,1.415,0.004
		c0.206-0.109,0.396-0.273,0.547-0.518c4.522-7.344,9.045-14.688,13.567-22.031C509.459,237.025,509.18,236.133,508.533,235.735z
		 M459.014,232.115c-0.001,0.002-0.002,0.004-0.003,0.005c-0.521,0.848-1.042,1.693-1.563,2.539c-1.885-1.16-3.769-2.32-5.653-3.481
		c4.021-6.53,8.043-13.06,12.064-19.591c1.885,1.161,3.769,2.321,5.654,3.482c-0.952,1.544-1.903,3.088-2.854,4.633
		C464.111,223.838,461.563,227.977,459.014,232.115z M457.695,278.418c-3.727,6.146-7.541,12.244-11.311,18.365
		c-2.274,3.692-4.549,7.385-6.822,11.076c-1.682,2.732-3.58,6.77-7.573,4.565c-2.094-1.29-4.448-2.741-3.656-5.651
		c0.205-0.752,0.683-1.417,1.088-2.074c1.605-2.605,3.208-5.211,4.813-7.815c4.363-7.085,8.727-14.17,13.09-21.255
		c1.231-2,2.377-4.81,5.038-5.051c0.656-0.061,1.426,0.104,2.193,0.414c0.787,0.483,1.572,0.969,2.359,1.452
		c0.672,0.585,1.204,1.246,1.45,1.899C458.926,275.833,458.462,277.153,457.695,278.418z M459.109,267.192
		c-0.482,0.781-0.965,1.564-1.447,2.348c-0.084-0.052-0.169-0.104-0.253-0.156c-0.004-0.002-0.006-0.004-0.01-0.006
		s-0.008-0.005-0.013-0.008c-0.171-0.104-0.342-0.21-0.513-0.314c4.968-8.066,9.935-16.133,14.902-24.197
		c0.481-0.783,0.965-1.566,1.446-2.35c0.263,0.162,0.526,0.324,0.788,0.486C469.042,251.06,464.076,259.125,459.109,267.192z
		 M476.486,241.29c0-0.001,0-0.002,0-0.002c-1-0.662-2.043-1.324-3.119-1.988c0,0,0.056,0,0.055,0
		c-2.98-1.836-5.933-3.671-8.913-5.506c-0.771-0.475-1.528-0.949-2.298-1.424c1.237-2.011,2.482-4.021,3.72-6.031
		c1.227-1.991,2.456-3.982,3.683-5.975c7.756,4.776,15.511,9.553,23.265,14.328c0.771,0.475,1.542,0.948,2.312,1.424
		c-2.465,4.001-5.038,8.003-7.503,12.004C483.991,245.842,480.486,243.566,476.486,241.29z M493.772,257.032
		c-1.884-1.16-3.769-2.321-5.652-3.481c4.021-6.53,8.044-13.061,12.065-19.591c1.884,1.16,3.769,2.32,5.653,3.48
		C501.816,243.971,497.793,250.5,493.772,257.032z"/>
	<path fill="#F2F2F2" d="M131.754,185.514c-0.168-4.322-3.557-5.957-7.429-5.957c-3.874,0-7.747,0-11.621,0
		c-3.149,0-6.32-0.307-9.468-0.197c-4.361,0.15-6.248,3.393-6.248,7.342c0,3.77-0.041,7.492,0,11.263
		c0.044,3.969,2.34,6.573,6.305,6.632c3.174,0.046,6.192,0.025,9.192,0.018c0,1.934,0,4.943,0,7.943c-2,0-5,0-8,0c-2,0-2,3,0,3
		c0,0,12,0,18,0c3,0,3-3,0-3c-2,0-5,0-7,0c0-3,0-5.242,0-7.952c3-0.015,6.682-0.034,9.861-0.034c0.152,0,0.449-0.022,0.578-0.056
		c2.671-0.318,5.021-2.027,5.606-4.777c0.271-1.278,0.183-2.58,0.183-3.877C131.714,192.388,131.889,188.985,131.754,185.514z
		 M125.667,202.557c-5.821,0-11.642,0-17.462,0c-1.846,0-5.398,0.021-7.057-1.064c-2.275-1.488-1.662-7.141-1.662-9.42
		c0-1.732,0-3.465,0-5.197c0-1.312,0.17-2.549,1.193-3.572c1.508-1.508,5.439-0.746,7.349-0.746c3.676,0,7.351,0,11.025,0
		c2.171,0,4.438-0.32,6.604-0.127c4.144,0.365,2.958,6.987,2.958,9.856C128.615,195.091,129.874,201.557,125.667,202.557z"/>
	<path fill="#F2F2F2" d="M395.386,251.098c0.599-0.175,1.197-0.35,1.798-0.525c0.732-0.215,1.218-1.007,0.999-1.76
		c-3.487-11.932-6.974-23.861-10.46-35.793c-0.494-1.69-0.989-3.382-1.483-5.073c-0.215-0.733-1.006-1.22-1.76-0.999
		c-9.509,2.778-19.016,5.558-28.524,8.336c-0.89,0.26-1.78,0.521-2.671,0.781c-0.946-3.504-1.857-7.178-5.146-9.211
		c-3.446-2.13-6.962-1.112-10.504-0.078c-4.049,1.184-8.096,2.367-12.145,3.55c-3.217,0.94-6.733,1.583-9.093,4.182
		c-2.166,2.387-2.961,5.544-2.156,8.658c0.345,1.333,0.75,2.653,1.15,3.974c-9.041,2.642-18.081,5.283-27.12,7.924
		c-1.347,0.395-2.694,0.788-4.042,1.182c-0.732,0.215-1.218,1.007-0.998,1.76c3.486,11.932,6.973,23.862,10.46,35.793
		c0.495,1.691,0.988,3.383,1.482,5.074c0.214,0.732,1.007,1.219,1.759,0.998c0.401-0.117,0.802-0.234,1.202-0.352
		c2.789,9.539,5.576,19.078,8.365,28.617c0.213,0.733,1.006,1.22,1.759,1c10.657-3.115,21.314-6.23,31.972-9.344
		c16.971-4.96,33.941-9.92,50.912-14.879c3.873-1.132,7.746-2.264,11.619-3.396c0.733-0.214,1.22-1.007,0.999-1.759
		C400.969,270.204,398.177,260.651,395.386,251.098z M297.526,276.715c-3.352-11.466-6.703-22.932-10.054-34.398
		c-0.362-1.24-0.725-2.48-1.087-3.721c9.043-2.643,18.085-5.286,27.129-7.929c1.348-0.394,2.695-0.787,4.042-1.181
		c0.733-0.214,1.22-1.007,0.998-1.76c-0.979-3.349-2.886-7.216-0.701-10.461c1.783-2.646,4.947-3.174,7.793-4.005
		c3.555-1.039,7.109-2.077,10.664-3.116c2.293-0.671,5.129-1.949,7.565-1.748c5.156,0.424,5.875,5.842,7.04,9.827
		c0.088,0.302,0.245,0.524,0.437,0.687c0.006,0.006,0.012,0.011,0.018,0.017c0.019,0.015,0.036,0.031,0.055,0.045
		c0.306,0.271,0.733,0.402,1.251,0.251c9.509-2.778,19.016-5.557,28.524-8.336c0.896-0.262,1.793-0.523,2.688-0.785
		c3.35,11.466,6.702,22.932,10.053,34.398c0.362,1.24,0.725,2.48,1.087,3.721c-0.599,0.176-1.198,0.351-1.798,0.525
		c-12.526,3.566-25.053,7.133-37.58,10.698c-1.347,0.384-2.694,0.767-4.041,1.149c-0.924-3.162-1.848-6.326-2.772-9.488
		c-0.216-0.733-1.007-1.22-1.761-1c-3.404,0.996-6.811,1.99-10.216,2.986c-0.733,0.214-1.219,1.006-1,1.76
		c1.018,3.479,2.033,6.959,3.051,10.439c-11.669,3.215-23.337,6.431-35.005,9.646c-1.726,0.476-3.453,0.951-5.179,1.427
		C298.327,276.481,297.926,276.598,297.526,276.715z M352.586,274.139c-2.49,0.729-4.98,1.456-7.47,2.184
		c-2.034-6.959-4.067-13.92-6.102-20.879c2.489-0.729,4.979-1.456,7.47-2.184C348.518,260.22,350.552,267.18,352.586,274.139z
		 M370.028,288.102c-16.971,4.959-33.941,9.919-50.911,14.879c-3.422,1-6.845,2-10.267,3c-2.654-9.081-5.309-18.162-7.963-27.243
		c11.669-3.216,23.338-6.431,35.008-9.647c1.272-0.35,2.545-0.701,3.818-1.053c1.018,3.48,2.035,6.96,3.052,10.439
		c0.215,0.733,1.006,1.22,1.76,1c3.405-0.996,6.812-1.99,10.216-2.986c0.302-0.088,0.523-0.244,0.687-0.436
		c0.006-0.006,0.012-0.014,0.018-0.02c0.016-0.019,0.031-0.035,0.044-0.053c0.27-0.307,0.402-0.734,0.252-1.252
		c-1.11-3.797-2.219-7.593-3.329-11.389c12.062-3.434,24.122-6.867,36.184-10.301c1.348-0.383,2.693-0.767,4.04-1.15
		c2.657,9.092,5.314,18.183,7.971,27.274C390.414,282.145,380.221,285.124,370.028,288.102z"/>
	<path fill="#F2F2F2" d="M322.82,226.435c0.215,0.733,1.007,1.22,1.76,0.999c7.236-2.115,14.474-4.23,21.71-6.345
		c0.734-0.214,1.22-1.007,1-1.76c-0.69-2.363-1.014-6.899-4.22-6.994c-2.052-0.062-4.408,1.071-6.33,1.634
		c-3.307,0.966-6.614,1.932-9.921,2.898c-2.125,0.621-5.669,1.092-5.535,3.949c-0.015,0.169-0.004,0.35,0.054,0.546
		C321.832,223.053,322.326,224.745,322.82,226.435z M328.625,219.321c2.849-0.832,5.696-1.664,8.544-2.496
		c1.754-0.513,3.534-0.975,5.271-1.541c0.028-0.009,0.058-0.015,0.086-0.024c0.725-0.243,0.585-0.091,0.561-0.111
		c0.257,0.231,0.35,1.198,0.444,1.518c0.201,0.691,0.404,1.382,0.605,2.072c-6.321,1.848-12.643,3.694-18.964,5.543
		c-0.332-1.14-0.665-2.278-0.999-3.418C324.473,220.105,328.146,219.461,328.625,219.321z"/>
	<path fill="#F2F2F2" d="M295.142,130.796c-0.896-0.215-1.922,0.278-2.149,1.221c-1.438,5.964-2.876,11.928-4.313,17.892
		c-0.216,0.896,0.278,1.922,1.221,2.149c0.932,0.225,1.862,0.449,2.795,0.674c-1.49,6.185-2.981,12.368-4.472,18.553
		c-0.218,0.896,0.276,1.923,1.219,2.149c3.065,0.738,6.131,1.479,9.195,2.217c0.307,0.074,0.586,0.064,0.838,0.004
		c0.592-0.081,1.127-0.457,1.312-1.225c1.414-5.869,2.829-11.738,4.244-17.606c6.329,5.374,12.656,10.748,18.983,16.122
		c0.264,0.224,0.545,0.345,0.827,0.4c0.805,0.228,1.727-0.051,2.043-1.027c0.108-0.211,0.173-0.438,0.178-0.67
		c2.938-12.187,5.876-24.374,8.814-36.561c0.421-1.746,0.841-3.492,1.262-5.238c0.319-1.32-0.834-2.458-2.148-2.149
		c-8.892,2.091-17.782,4.182-26.674,6.272C303.924,132.914,299.534,131.855,295.142,130.796z M297.814,171.858
		c-1.934-0.465-3.867-0.932-5.8-1.398c1.359-5.636,2.718-11.271,4.076-16.909c1.934,0.466,3.866,0.932,5.8,1.398
		C300.532,160.585,299.172,166.222,297.814,171.858z M302.709,151.953c-2.481-0.598-4.962-1.396-7.442-1.396c0,0-0.001,0-0.002,0
		c-0.931-1-1.861-0.849-2.793-1.073c1.165-4.832,2.329-9.985,3.494-14.816c3.412,0.822,6.825,1.686,10.237,2.508
		C305.039,142.008,303.874,147.12,302.709,151.953z M333.091,131.735c-2.754,11.424-5.508,22.849-8.262,34.273
		c-0.204,0.846-0.409,1.693-0.612,2.539c-6.091-5.172-12.181-10.345-18.271-15.517c1.27-5.269,2.54-10.539,3.811-15.808
		C317.535,135.394,325.313,133.565,333.091,131.735z"/>
	<path fill="#F2F2F2" d="M345.96,147.167c1.469,0.354,2.938,0.708,4.407,1.062c-0.346,1.432-0.691,2.864-1.036,4.296
		c-0.527,2.186,2.843,3.118,3.37,0.929c0.354-1.469,0.708-2.938,1.062-4.406c1.432,0.345,2.863,0.69,4.296,1.036
		c2.186,0.527,3.118-2.842,0.928-3.37c-1.468-0.354-2.937-0.708-4.406-1.062c0.347-1.433,0.691-2.865,1.036-4.296
		c0.526-2.186-2.843-3.118-3.37-0.929c-0.354,1.469-0.707,2.938-1.062,4.407c-1.433-0.346-2.864-0.691-4.296-1.036
		C344.705,143.271,343.772,146.64,345.96,147.167z"/>
	<path fill="#F2F2F2" d="M368.426,171.073c0.354-1.469,0.708-2.938,1.062-4.406c1.432,0.345,2.864,0.689,4.297,1.035
		c2.185,0.527,3.117-2.842,0.929-3.369c-1.47-0.355-2.938-0.709-4.406-1.062c0.345-1.433,0.69-2.864,1.035-4.297
		c0.527-2.185-2.842-3.117-3.369-0.929c-0.354,1.469-0.708,2.938-1.062,4.406c-1.433-0.345-2.865-0.69-4.297-1.036
		c-2.186-0.526-3.117,2.843-0.929,3.37c1.469,0.354,2.938,0.708,4.407,1.062c-0.347,1.433-0.691,2.864-1.036,4.296
		C364.529,172.329,367.898,173.261,368.426,171.073z"/>
	<path fill="#F2F2F2" d="M340.36,170.397c1.469,0.355,2.938,0.709,4.407,1.063c-0.346,1.433-0.69,2.864-1.036,4.296
		c-0.527,2.186,2.842,3.118,3.369,0.93c0.354-1.469,0.709-2.938,1.062-4.407c1.433,0.346,2.864,0.69,4.297,1.036
		c2.186,0.526,3.117-2.843,0.929-3.37c-1.469-0.354-2.938-0.708-4.406-1.062c0.345-1.433,0.69-2.865,1.036-4.297
		c0.526-2.186-2.843-3.118-3.37-0.93c-0.354,1.47-0.708,2.938-1.062,4.406c-1.433-0.344-2.864-0.689-4.297-1.035
		C339.104,166.501,338.171,169.87,340.36,170.397z"/>
	<path fill="#F2F2F2" d="M378.462,79.083c4.535,1.188,9.07,2.375,13.606,3.563c0.185,0.086,0.383,0.139,0.586,0.153
		c0.132,0.035,0.263,0.069,0.395,0.104c4.403,1.153,8.808,2.306,13.212,3.459c0.182,0.086,0.382,0.139,0.583,0.153
		c4.536,1.188,9.07,2.375,13.606,3.563c0.184,0.086,0.384,0.139,0.586,0.154c4.535,1.187,9.07,2.375,13.604,3.562
		c0.184,0.087,0.385,0.14,0.588,0.154c0.875,0.229,1.75,0.458,2.625,0.688c3.468,0.908,6.936,1.817,10.405,2.725
		c0.459,0.12,0.846,0.023,1.141-0.192c0.275-0.165,0.5-0.434,0.605-0.836c3.024-11.545,6.047-23.09,9.07-34.635
		c0.431-1.641,0.859-3.281,1.289-4.922c0.197-0.75-0.279-1.551-1.028-1.747c-9.452-2.476-18.904-4.951-28.357-7.427
		c-14.935-3.911-29.871-7.822-44.805-11.733c-3.469-0.908-6.937-1.816-10.405-2.725c-0.749-0.197-1.55,0.278-1.747,1.028
		c-2.294,8.757-4.586,17.513-6.879,26.27c-0.197,0.296-0.294,0.665-0.267,1.02c-0.642,2.448-1.283,4.897-1.925,7.345
		c-0.429,1.641-0.859,3.282-1.289,4.922c-0.196,0.75,0.278,1.551,1.027,1.747c4.396,1.151,8.793,2.303,13.188,3.454
		C378.061,79.017,378.26,79.069,378.462,79.083z M392.606,76.138c-0.302,1.149-0.602,2.299-0.903,3.449
		c-3.806-0.997-7.611-1.993-11.418-2.99c0.873-3.333,1.747-6.666,2.619-9.999c3.806,0.997,7.611,1.994,11.418,2.99
		C393.75,71.772,393.178,73.955,392.606,76.138z M423.429,74.248c-3.805-0.997-7.611-1.993-11.417-2.99
		c0.93-3.55,1.859-7.1,2.789-10.65c3.806,0.997,7.611,1.994,11.418,2.99C425.29,67.147,424.359,70.698,423.429,74.248z
		 M428.992,64.324c3.807,0.997,7.613,1.993,11.418,2.99c-0.93,3.55-1.859,7.101-2.789,10.651c-3.806-0.997-7.612-1.994-11.417-2.99
		C427.133,71.424,428.062,67.874,428.992,64.324z M409.239,70.532c-3.806-0.997-7.612-1.994-11.418-2.99
		c0.931-3.55,1.859-7.101,2.789-10.651c3.807,0.997,7.613,1.993,11.418,2.99C411.098,63.431,410.169,66.981,409.239,70.532z
		 M395.047,66.815c-3.806-0.997-7.611-1.993-11.418-2.99c0.93-3.55,1.86-7.1,2.79-10.65c3.806,0.997,7.611,1.993,11.418,2.99
		C396.908,59.715,395.977,63.265,395.047,66.815z M406.797,79.855c-0.302,1.149-0.603,2.299-0.903,3.448
		c-3.806-0.997-7.612-1.994-11.417-2.99c0.872-3.333,1.744-6.666,2.617-9.998c3.807,0.997,7.612,1.993,11.418,2.99
		C407.941,75.488,407.369,77.671,406.797,79.855z M420.988,83.571c-0.301,1.15-0.602,2.299-0.903,3.449
		c-3.806-0.997-7.611-1.993-11.418-2.99c0.873-3.333,1.747-6.666,2.619-9.998c3.806,0.996,7.611,1.993,11.418,2.99
		C422.131,79.205,421.56,81.388,420.988,83.571z M435.179,87.288c-0.302,1.149-0.603,2.299-0.903,3.449
		c-3.805-0.997-7.611-1.994-11.417-2.99c0.872-3.333,1.745-6.666,2.618-9.999c3.806,0.997,7.611,1.994,11.417,2.99
		C436.323,82.92,435.75,85.104,435.179,87.288z M448.52,90.692c-0.309,1.177-0.617,2.354-0.925,3.532
		c-3.516-0.92-7.03-1.841-10.547-2.761c0.873-3.333,1.747-6.666,2.619-9.999c0.479,0.126,0.959,0.251,1.439,0.377
		c3.035,0.795,6.071,1.59,9.105,2.385C449.649,86.381,449.084,88.537,448.52,90.692z M450.94,81.452
		c-3.516-0.921-7.031-1.841-10.546-2.762c0.93-3.55,1.859-7.101,2.789-10.651c0.543,0.142,1.085,0.285,1.628,0.427
		c2.973,0.778,5.944,1.557,8.917,2.335C452.799,74.352,451.87,77.902,450.94,81.452z M446.683,54.678
		c0.51,0.133,1.02,0.267,1.53,0.401c3.005,0.787,6.01,1.574,9.014,2.361c-0.923,3.529-1.848,7.059-2.772,10.588
		c-3.515-0.92-7.03-1.841-10.546-2.761c0.605-2.311,1.212-4.623,1.816-6.934C446.045,57.115,446.363,55.896,446.683,54.678z
		 M431.535,54.616c0.318-1.218,0.638-2.436,0.956-3.654c3.807,0.997,7.613,1.993,11.418,2.99c-0.924,3.53-1.849,7.059-2.771,10.588
		c-3.807-0.997-7.613-1.993-11.418-2.99C430.324,59.239,430.928,56.928,431.535,54.616z M418.301,47.246
		c3.805,0.997,7.61,1.993,11.417,2.99c-0.924,3.53-1.849,7.059-2.773,10.588c-3.806-0.997-7.611-1.994-11.418-2.99
		c0.605-2.312,1.212-4.623,1.816-6.934C417.664,49.682,417.981,48.463,418.301,47.246z M403.153,47.184
		c0.318-1.218,0.638-2.436,0.956-3.655c3.807,0.997,7.613,1.994,11.418,2.99c-0.924,3.53-1.849,7.059-2.771,10.588
		c-3.807-0.997-7.613-1.993-11.418-2.99C401.942,51.806,402.546,49.495,403.153,47.184z M388.961,43.467
		c0.318-1.218,0.638-2.436,0.957-3.654c3.806,0.997,7.611,1.994,11.418,2.99c-0.925,3.529-1.849,7.059-2.773,10.588
		c-3.806-0.996-7.611-1.993-11.418-2.99C387.751,48.089,388.357,45.778,388.961,43.467z M375.508,39.813
		c0.309-1.178,0.616-2.355,0.925-3.533c3.57,0.935,7.142,1.87,10.711,2.805c-0.924,3.53-1.849,7.059-2.772,10.589
		c-0.543-0.143-1.085-0.285-1.628-0.427c-3.027-0.793-6.055-1.585-9.083-2.379C374.277,44.517,374.892,42.166,375.508,39.813z
		 M372.934,49.643c3.57,0.935,7.142,1.87,10.711,2.805c-0.93,3.55-1.859,7.101-2.789,10.65c-0.607-0.159-1.215-0.318-1.821-0.477
		c-2.963-0.776-5.926-1.552-8.891-2.328C371.075,56.743,372.004,53.193,372.934,49.643z M375.815,75.426
		c-3.005-0.787-6.01-1.574-9.015-2.36c0.872-3.333,1.745-6.666,2.618-9.999c3.57,0.935,7.141,1.87,10.711,2.805
		c-0.571,2.184-1.144,4.367-1.715,6.55c-0.301,1.149-0.603,2.298-0.903,3.448C376.946,75.722,376.38,75.574,375.815,75.426z"/>
	<path fill="#F2F2F2" d="M352.8,80.437c11.682,3.059,23.363,6.118,35.046,9.177c18.463,4.835,36.927,9.671,55.39,14.506
		c4.246,1.112,8.492,2.224,12.738,3.336c0.75,0.197,1.551-0.279,1.747-1.028c2.1-8.019,4.199-16.036,6.3-24.054
		c2.564-9.792,5.128-19.584,7.693-29.376c0.289-0.352,0.417-0.84,0.338-1.29c0.39-1.488,0.778-2.976,1.168-4.463
		c0.291-0.352,0.419-0.84,0.338-1.29c0.173-0.659,0.346-1.318,0.518-1.977c0.775-2.964,1.552-5.927,2.327-8.89
		c0.197-0.75-0.277-1.551-1.027-1.747c-2.717-0.711-5.434-1.423-8.15-2.135c0.043-0.18,0.086-0.36,0.128-0.535
		c1.145-3.978,2.45-9.134-2.697-10.486c-0.001,0-0.002-0.001-0.003-0.001c-0.004-0.001-0.01-0.003-0.014-0.004
		c-0.093-0.029-0.188-0.045-0.283-0.051c-5.082-1.104-6.333,4.433-7.265,8.424c-5.173-1.354-10.344-2.709-15.515-4.063
		c0.106-0.448,0.212-0.887,0.32-1.302c0.021-0.081,0.028-0.158,0.036-0.235c1.039-3.797,1.77-8.258-2.95-9.493
		c-5.359-1.401-6.634,4.282-7.588,8.363c-5.068-1.327-10.137-2.655-15.205-3.982c1.168-4.027,2.848-9.606-2.521-11.01
		c-5.36-1.402-6.632,4.282-7.588,8.363c-5.045-1.322-10.091-2.644-15.138-3.964c0.106-0.448,0.212-0.888,0.32-1.302
		c0.019-0.068,0.022-0.132,0.031-0.198c1.042-3.807,1.783-8.285-2.956-9.531c-0.002,0-0.003-0.002-0.005-0.002
		c-0.003-0.001-0.006-0.002-0.01-0.002c-0.092-0.029-0.187-0.045-0.283-0.05c-5.09-1.109-6.341,4.426-7.274,8.421
		c-2.854-0.747-5.71-1.495-8.563-2.242c-0.751-0.197-1.552,0.278-1.748,1.028c-2.1,8.018-4.199,16.035-6.298,24.053
		c-3.353,12.798-6.705,25.598-10.056,38.396c-0.777,2.963-1.553,5.926-2.329,8.89C351.577,79.439,352.051,80.241,352.8,80.437z
		 M459.185,32.189c0.365-1.396,0.731-2.792,1.097-4.187c0.078-0.301,0.06-0.568-0.02-0.802c0.582-2.367,1.573-4.787,3.665-4.243
		c2.188,0.568,1.813,3.262,1.133,5.656c-0.127,0.151-0.229,0.339-0.29,0.573c-0.084,0.321-0.166,0.721-0.251,1.16
		c-0.199,0.6-0.377,1.124-0.479,1.513c-0.073,0.277-0.061,0.525,0.004,0.746c-0.558,2.261-1.502,4.495-3.643,4.086
		C458.199,35.79,458.715,33.986,459.185,32.189z M433.576,25.324c0.353-1.346,0.704-2.692,1.058-4.038
		c0.089-0.34,0.059-0.641-0.05-0.894c0.588-2.346,1.586-4.708,3.681-4.156c2.2,0.581,1.764,3.367,1.059,5.79
		c-0.084,0.127-0.155,0.27-0.201,0.443c-0.056,0.215-0.111,0.47-0.167,0.742c-0.252,0.768-0.489,1.446-0.612,1.917
		c-0.072,0.278-0.052,0.562,0.039,0.82c-0.56,2.239-1.506,4.429-3.628,4.025C432.453,29.214,433.122,27.058,433.576,25.324z
		 M408.18,18.674c0.353-1.346,0.705-2.692,1.059-4.039c0.071-0.273,0.06-0.518-0.001-0.736c0.582-2.39,1.577-4.855,3.711-4.292
		c2.141,0.564,1.786,3.216,1.116,5.59c-0.148,0.158-0.27,0.36-0.339,0.622c-0.1,0.381-0.194,0.872-0.3,1.412
		c-0.165,0.497-0.311,0.937-0.398,1.269c-0.056,0.216-0.051,0.436-0.005,0.646c-0.554,2.291-1.493,4.592-3.664,4.178
		C407.058,22.564,407.726,20.407,408.18,18.674z M382.943,12.064c0.353-1.346,0.704-2.692,1.057-4.039
		c0.089-0.337,0.061-0.635-0.045-0.887c0.585-2.343,1.579-4.707,3.653-4.169c0.002,0,0.004,0.001,0.006,0.002
		c2.214,0.581,1.788,3.358,1.085,5.78c-0.088,0.13-0.164,0.278-0.21,0.458c-0.06,0.227-0.117,0.498-0.177,0.788
		c-0.245,0.749-0.476,1.41-0.597,1.873c-0.072,0.274-0.053,0.554,0.035,0.809c-0.559,2.243-1.505,4.44-3.631,4.035
		C381.819,15.955,382.489,13.797,382.943,12.064z M370.903,16.959c0.654-2.5,1.309-5,1.963-7.5c2.43,0.636,4.858,1.272,7.288,1.909
		c-0.125,0.481-0.255,0.961-0.371,1.444c-0.673,2.781,0.483,5.295,3.033,6.425c0.153,0.117,0.346,0.206,0.585,0.251
		c0.21,0.07,0.406,0.088,0.585,0.07c3.807,0.43,5.323-2.399,6.247-5.551c5.054,1.324,10.105,2.646,15.159,3.97
		c-0.125,0.48-0.255,0.96-0.371,1.443c-0.672,2.781,0.483,5.295,3.033,6.426c0.155,0.116,0.347,0.206,0.585,0.251
		c0.212,0.07,0.406,0.088,0.585,0.07c3.806,0.43,5.324-2.398,6.248-5.551c5.104,1.336,10.21,2.674,15.314,4.011
		c-0.124,0.481-0.254,0.961-0.37,1.443c-0.673,2.782,0.482,5.296,3.033,6.427c0.154,0.116,0.346,0.205,0.584,0.251
		c0.211,0.069,0.405,0.088,0.583,0.07c3.808,0.431,5.326-2.398,6.25-5.552c5.189,1.359,10.379,2.718,15.568,4.078
		c-0.131,0.505-0.267,1.009-0.39,1.517c-0.691,2.862,0.568,5.04,2.973,6.28c0.164,0.152,0.38,0.271,0.664,0.325
		c0.264,0.107,0.501,0.124,0.711,0.085c3.715,0.354,5.208-2.449,6.122-5.567c2.25,0.589,4.501,1.179,6.751,1.768
		c-0.763,2.911-1.524,5.822-2.287,8.733c-11.156-2.921-22.313-5.844-33.47-8.766c-18.464-4.835-36.928-9.67-55.391-14.505
		c-3.846-1.008-7.692-2.015-11.539-3.022C370.687,17.782,370.794,17.37,370.903,16.959z M369.854,20.966
		c11.284,2.955,22.568,5.91,33.853,8.866c18.464,4.835,36.927,9.67,55.391,14.505c3.718,0.974,7.438,1.948,11.156,2.922
		c-0.26,0.993-0.52,1.986-0.78,2.979c-11.157-2.922-22.314-5.844-33.472-8.765c-18.462-4.835-36.926-9.671-55.389-14.506
		c-3.848-1.007-7.694-2.015-11.54-3.022C369.333,22.953,369.593,21.959,369.854,20.966z M360.847,55.355
		c2.5-9.546,5-19.091,7.499-28.636c11.285,2.955,22.569,5.911,33.854,8.866c18.465,4.835,36.927,9.671,55.392,14.506
		c3.718,0.974,7.437,1.948,11.155,2.921c-0.473,1.804-0.944,3.607-1.417,5.411c-3.353,12.798-6.704,25.597-10.056,38.396
		c-0.655,2.5-1.31,5-1.965,7.499c-11.22-2.938-22.441-5.876-33.661-8.815c-18.464-4.835-36.927-9.67-55.391-14.506
		c-3.782-0.991-7.565-1.981-11.348-2.972C356.889,70.469,358.868,62.912,360.847,55.355z"/>
	<path fill="#F2F2F2" d="M105.846,62.5c0.553,2.256,1.104,4.512,1.657,6.768c0.188,0.768,1.026,1.182,1.764,1.001
		c9.522-2.332,19.046-4.664,28.569-6.996c1.37-0.335,2.74-0.671,4.11-1.007c7.768-1.901,15.535-3.804,23.305-5.706
		c0.609-0.149,0.917-0.57,0.995-1.041c0.058-0.215,0.069-0.456,0.005-0.722c-2.79-11.396-5.58-22.791-8.371-34.186
		c-0.4-1.635-0.8-3.27-1.2-4.905c-0.188-0.767-1.026-1.181-1.764-1.001c-7.29,1.786-14.581,3.57-21.871,5.356
		c-0.588-2.401-1.176-4.802-1.764-7.203c-0.552-2.256-1.105-4.512-1.657-6.768c-0.188-0.767-1.027-1.181-1.763-1
		c-9.522,2.332-19.047,4.664-28.569,6.996c-1.371,0.335-2.74,0.67-4.111,1.006C94.414,13.28,94,14.119,94.18,14.855
		C98.069,30.736,101.958,46.618,105.846,62.5z M154.246,17.821c2.682,10.944,5.36,21.889,8.041,32.834
		c0.283,1.158,0.566,2.315,0.851,3.473c-6.84,1.675-13.68,3.349-20.521,5.024c-2.681-10.944-5.359-21.889-8.039-32.833
		c-0.284-1.158-0.567-2.315-0.851-3.473C140.567,21.17,147.407,19.495,154.246,17.821z M124.513,8.861
		c0.893-0.219,1.785-0.438,2.679-0.656c3.778,15.43,7.557,30.861,11.335,46.292c0.436,1.778,0.871,3.557,1.307,5.336
		c-9.072,2.222-18.145,4.443-27.218,6.665c-0.894,0.218-1.786,0.437-2.681,0.656c-3.777-15.431-7.556-30.862-11.334-46.293
		c-0.437-1.778-0.871-3.557-1.307-5.335C106.367,13.304,115.44,11.082,124.513,8.861z"/>
	
		<rect x="106.798" y="21.648" transform="matrix(0.2378 0.9713 -0.9713 0.2378 105.862 -87.648)" fill="#F2F2F2" width="3.966" height="3.967"/>
	
		<rect x="119.182" y="18.616" transform="matrix(0.2378 0.9713 -0.9713 0.2378 112.3556 -101.9879)" fill="#F2F2F2" width="3.966" height="3.966"/>
	
		<rect x="110.183" y="35.477" transform="matrix(-0.9713 0.2378 -0.2378 -0.9713 230.0238 47.1673)" fill="#F2F2F2" width="3.966" height="3.967"/>
	
		<rect x="122.568" y="32.444" transform="matrix(-0.9713 0.2377 -0.2377 -0.9713 253.7153 38.2593)" fill="#F2F2F2" width="3.966" height="3.966"/>
	
		<rect x="113.568" y="49.305" transform="matrix(-0.9713 0.2378 -0.2378 -0.9713 239.9871 73.6211)" fill="#F2F2F2" width="3.968" height="3.966"/>
	
		<rect x="125.954" y="46.273" transform="matrix(-0.9713 0.238 -0.238 -0.9713 263.6829 64.6742)" fill="#F2F2F2" width="3.966" height="3.966"/>
	
		<rect x="147.546" y="40.985" transform="matrix(-0.9713 0.2377 -0.2377 -0.9713 304.9866 49.158)" fill="#F2F2F2" width="3.966" height="3.967"/>
	
		<rect x="144.514" y="28.601" transform="matrix(0.238 0.9713 -0.9713 0.238 141.3295 -118.9827)" fill="#F2F2F2" width="3.967" height="3.966"/>
	<path fill="#F2F2F2" d="M443.981,171.915c7.182-8.18,9.012-20.387,3.918-30.07c-2.916-5.544-7.797-9.626-13.581-11.911
		c-9.345-3.451-20.088-1.125-27.092,5.999c-3.858,3.926-6.302,9.144-7.308,14.53c-1.203,6.437,0.622,11.887,3.217,17.707
		c1.382,3.101,3.06,6.882,2.48,10.368c-0.235,1.411-0.762,2.823-1.136,4.205c-0.021,0.08-0.027,0.157-0.038,0.235
		c-0.028,0.054-0.06,0.104-0.083,0.164c-0.64,1.672-1.16,3.809-0.388,5.352c-0.381,0.317-0.731,0.73-1.032,1.289
		c-0.141,0.26-0.283,0.541-0.424,0.832c-0.376-0.144-0.751-0.287-1.126-0.43c-1.724-0.66-2.47,2.109-0.762,2.763
		c0.283,0.108,0.566,0.217,0.851,0.325c-0.585,2.122-0.509,4.322,1.568,5.563c1.235,0.739,2.794,1.127,4.128,1.636
		c1.471,0.562,2.942,1.125,4.414,1.688c0.15,0.058,0.291,0.081,0.427,0.09c2.479,0.49,3.973-1.065,4.956-3.057
		c0.33,0.126,0.661,0.252,0.991,0.379c1.725,0.658,2.471-2.111,0.762-2.764c-0.242-0.094-0.483-0.186-0.726-0.277
		c0.061-0.193,0.117-0.385,0.173-0.57c0.215-0.732,0.256-1.365,0.175-1.928c1.719-0.669,2.732-2.855,3.38-4.549
		c0.062-0.163,0.086-0.313,0.092-0.458c0.559-1.149,1.08-2.347,1.736-3.437c1.364-2.268,3.893-3.773,6.182-4.959
		C434.792,178.008,440.102,176.334,443.981,171.915z M412.35,199.395c-2.389-0.912-5.018-1.623-7.291-2.785
		c-1.131-0.579-1.157-1.287-0.827-2.285c3.366,1.285,6.732,2.572,10.099,3.858C413.937,199.034,413.362,199.68,412.35,199.395z
		 M415.264,195.485c-3.355-1.282-6.712-2.564-10.068-3.847c0.357-0.698,0.875-1.193,1.762-1.083c1.396,0.549,2.82,1.038,4.214,1.57
		c1.175,0.449,2.379,1.014,3.594,1.47C415.401,194.056,415.48,194.69,415.264,195.485z M416.506,191.109
		c-0.377-0.109-0.753-0.235-1.126-0.372c-1.062-0.519-2.242-0.914-3.271-1.308c-1.071-0.409-2.314-0.983-3.559-1.359
		c-0.451-0.173-0.901-0.345-1.352-0.517c-0.154-0.06-0.518-0.125-0.638-0.244c-0.041-0.041-0.068-0.066-0.089-0.086
		c0.047,0.029,0.096,0.026-0.046-0.254c-0.212-0.422-0.097-1.016,0.105-1.604c3.982,1.521,7.966,3.043,11.947,4.565
		C418.087,190.782,417.563,191.415,416.506,191.109z M420.28,183.609c-0.469,0.782-0.87,1.618-1.266,2.454
		c-0.275-0.106-0.551-0.211-0.827-0.317c2.667-6.981,5.335-13.962,8.002-20.942c0.659-1.725-2.11-2.471-2.764-0.763
		c-2.635,6.896-5.269,13.792-7.904,20.687c-1.144-0.437-2.288-0.874-3.433-1.312c2.667-6.981,5.335-13.962,8.002-20.942
		c0.659-1.726-2.111-2.471-2.765-0.764c-2.634,6.896-5.269,13.793-7.903,20.688c-0.273-0.104-0.545-0.208-0.817-0.312
		c0.672-2.639,1.097-5.047,0.573-7.974c-1.078-6.024-5.184-11.063-5.804-17.203c-1.007-9.946,5.347-20.24,14.79-23.532
		c4.974-1.734,10.215-1.576,15.138,0.242c9.339,3.689,15.205,13.749,13.468,23.711c-0.832,4.779-3.133,9.705-6.649,13.096
		c-3.842,3.705-9.066,4.987-13.587,7.598C424.154,179.396,421.716,181.215,420.28,183.609z"/>
	<path fill="#F2F2F2" d="M428.736,155.198c-0.689-0.264-1.38-0.527-2.069-0.791c0.296-0.775,0.593-1.551,0.889-2.327
		c0.659-1.724-2.11-2.471-2.764-0.762c-0.264,0.69-0.527,1.38-0.791,2.07c-0.775-0.296-1.551-0.593-2.326-0.889
		c-1.725-0.659-2.471,2.111-0.762,2.764c0.689,0.264,1.38,0.527,2.069,0.791c-0.296,0.775-0.593,1.551-0.889,2.327
		c-0.659,1.725,2.11,2.471,2.764,0.762c0.264-0.689,0.527-1.38,0.791-2.07c0.775,0.296,1.551,0.593,2.326,0.888
		C429.7,158.622,430.445,155.851,428.736,155.198z"/>
	<path fill="#F2F2F2" d="M206.611,69.542c0.421,0.711,1.255,0.843,1.962,0.514c6.901-3.211,13.803-6.423,20.703-9.635
		c0.529-0.246,0.862-1.07,0.659-1.618c-0.837-2.266-1.674-4.531-2.51-6.797c1.707-0.795,3.413-1.59,5.121-2.384
		c1.928-0.897,2.625-2.077,1.673-4.151c-1.07-2.33-2.164-4.649-3.246-6.974c-0.84-1.805-1.426-4.399-3.928-3.943
		c-0.251,0.045-0.448,0.142-0.605,0.266c-1.533,0.714-3.068,1.428-4.603,2.142c-0.418-1.126-0.835-2.252-1.252-3.379
		c-0.343-0.924-1.217-1.271-2.104-0.857c-8.355,3.888-16.71,7.775-25.064,11.663c-0.699,0.326-0.879,1.343-0.514,1.961
		C197.472,54.081,202.042,61.812,206.611,69.542z M227.795,37.337c-0.01,0.016-0.02,0.031-0.029,0.047
		c-0.009-0.007-0.019-0.014-0.027-0.021C227.757,37.355,227.776,37.346,227.795,37.337z M227.414,37.515
		c0.575,1.02,0.982,2.208,1.458,3.228c0.916,1.969,1.831,3.938,2.748,5.906c0.012,0.025,0.027,0.071,0.045,0.118
		c-0.586,0.235-1.488,0.811-1.741,0.927c-1.165,0.542-2.33,1.084-3.494,1.626c-1.198-3.225-2.396-6.449-3.596-9.674
		C224.36,38.936,225.887,38.226,227.414,37.515z M218.402,35.911c0.418,1.126,0.835,2.252,1.253,3.379
		c1.531,4.119,3.062,8.239,4.593,12.358c0.838,2.266,1.673,4.531,2.511,6.797c-6.111,2.844-12.223,5.687-18.333,8.531
		c-4.083-6.907-8.167-13.814-12.249-20.722C203.584,42.807,210.993,39.358,218.402,35.911z"/>
	<path fill="#F2F2F2" d="M57.135,188.485c1.117-2.863,2.233-5.728,3.355-8.59c1.639-4.18,3.278-8.358,4.917-12.539
		c4.699,0.897,9.573-1.385,11.606-5.885c1.969-4.356,0.652-9.602-3.115-12.527c-3.728-2.894-9.076-2.89-12.795,0.021
		c-4.05,3.17-5.044,8.747-2.729,13.167c-9.165,7.197-18.33,14.395-27.497,21.592c-4.634,3.641-9.269,7.279-13.902,10.92
		c-0.94,0.737-1.522,1.118-1.566,2.416c-0.093,2.711-0.062,5.434-0.094,8.146c-0.01,0.847-0.02,1.694-0.029,2.542
		c-0.101,0.254-0.095,0.516-0.009,0.762c-0.066,5.736-0.131,11.472-0.197,17.207c-0.011,0.908,0.928,1.658,1.814,1.382
		c5.61-1.747,11.222-3.493,16.831-5.239c3.164-0.984,6.329-1.97,9.492-2.955c1.28-0.398,2.205-0.602,2.738-1.939
		c3.673-9.232,7.28-18.491,10.893-27.748C57.05,188.986,57.138,188.734,57.135,188.485z M18.273,197.243
		c12.517-9.83,25.035-19.661,37.553-29.491c1.811-1.421,3.621-2.843,5.431-4.265c0.465-0.365,0.549-1.26,0.224-1.736
		c-2.258-3.318-1.972-7.811,1.253-10.442c2.735-2.232,6.814-2.239,9.555-0.01c2.604,2.119,3.507,5.818,2.165,8.894
		c-1.63,3.736-5.758,5.291-9.533,4.094c-0.755-0.24-1.323,0.133-1.59,0.68c-0.065,0.096-0.126,0.201-0.174,0.321
		c-0.847,2.161-1.694,4.321-2.541,6.481c-0.016,0.012-0.032,0.019-0.048,0.031c-13.103,10.34-26.204,20.68-39.307,31.02
		c-1.025,0.81-2.053,1.619-3.079,2.43C18.211,202.581,18.242,199.911,18.273,197.243z M45.535,210.227
		c-0.737,1.881-1.475,3.762-2.213,5.643c-8.45,2.631-16.901,5.262-25.353,7.893c0.017-1.461,0.034-2.921,0.051-4.381
		c11.242-8.725,22.486-17.448,33.729-26.172c0.22-0.17,0.439-0.34,0.658-0.511C50.117,198.542,47.826,204.384,45.535,210.227z
		 M20.591,213.787c-0.844,0.654-1.687,1.309-2.53,1.963c0.025-2.28,0.053-4.561,0.078-6.841
		c12.966-10.232,25.93-20.464,38.896-30.695c0.508-0.402,1.016-0.803,1.523-1.203c-1.375,3.505-2.749,7.01-4.123,10.516
		C43.154,196.28,31.873,205.034,20.591,213.787z"/>
	<path fill="#F2F2F2" d="M74.166,110.127c7.859-14.452,6.089-32.502-4.658-45.022C58.713,52.53,40.474,48.04,25.081,54.158
		C9.685,60.278-0.607,75.759,0.028,92.378c0.631,16.527,11.755,31.196,27.5,36.27C45.34,134.387,65.051,126.349,74.166,110.127z
		 M3.498,97.725C0.605,82.612,7.908,66.849,21.22,59.179c13.257-7.639,30.395-6.154,42.071,3.783
		c13.212,11.243,16.662,30.522,8.399,45.718c-7.483,13.318-22.714,20.997-37.898,18.532C18.6,124.746,6.386,112.822,3.498,97.725z"
		/>
	<path fill="#F2F2F2" d="M47.768,119.866c0.259-0.014,0.513-0.091,0.734-0.222c7.2-2.289,13.542-7.227,17.411-14.079
		c5.979-11.053,4.646-24.776-3.58-34.338c-8.255-9.598-22.203-12.96-33.932-8.243c-11.638,4.68-19.415,16.419-18.953,29
		c0.093,2.527,0.521,4.991,1.22,7.357c0.024,0.208,0.092,0.411,0.19,0.594c2.302,7.228,7.274,13.417,13.884,17.205
		c0.164,0.141,0.356,0.247,0.56,0.312c1.614,0.88,3.31,1.635,5.094,2.211C36.177,121.53,42.208,121.482,47.768,119.866z
		 M27.653,115.447c1.267-2.291,2.532-4.582,3.798-6.872c0.894-1.615-1.581-3.063-2.475-1.446c-1.274,2.304-2.547,4.608-3.821,6.912
		c-5.122-3.231-9.129-8.103-11.236-13.878c2.522-0.726,5.046-1.453,7.568-2.18c1.77-0.51,1.017-3.276-0.762-2.764
		c-2.543,0.731-5.085,1.464-7.627,2.197c-0.109-0.441-0.228-0.879-0.315-1.327c-1.155-5.887-0.2-11.908,2.377-17.138
		c2.354,1.301,4.708,2.603,7.063,3.905c1.615,0.893,3.063-1.582,1.446-2.475c-2.373-1.312-4.745-2.623-7.117-3.935
		c2.312-3.685,5.482-6.846,9.346-9.08c1.592-0.92,3.265-1.644,4.979-2.212c0.735,2.553,1.471,5.106,2.206,7.66
		c0.511,1.769,3.276,1.017,2.765-0.762c-0.736-2.557-1.474-5.114-2.21-7.671c5.974-1.302,12.298-0.578,17.824,2.071
		c-1.287,2.329-2.574,4.657-3.862,6.985c-0.893,1.615,1.581,3.062,2.475,1.446c1.302-2.354,2.604-4.708,3.904-7.062
		c1.127,0.697,2.21,1.474,3.233,2.347c3.893,3.32,6.617,7.575,8.132,12.199c-2.541,0.732-5.084,1.464-7.626,2.197
		c-1.77,0.509-1.018,3.276,0.762,2.764c2.539-0.731,5.076-1.462,7.614-2.193c1.257,5.812,0.648,12.009-1.98,17.601
		c-2.365-1.308-4.73-2.615-7.095-3.922c-1.616-0.893-3.064,1.582-1.447,2.475c2.39,1.321,4.78,2.643,7.172,3.964
		c-3.335,5.29-8.338,9.263-14.066,11.345c-0.725-2.518-1.45-5.036-2.175-7.553c-0.51-1.769-3.276-1.017-2.765,0.762
		c0.735,2.546,1.468,5.094,2.2,7.641c-3.383,0.84-6.949,1.039-10.524,0.475C32.674,117.49,30.067,116.638,27.653,115.447z"/>
	<path fill="#F2F2F2" d="M41.77,101.471c0.612,1.726,3.382,0.983,2.764-0.762c-0.898-2.537-1.797-5.074-2.696-7.611
		c0.086-0.087,0.163-0.183,0.238-0.28c0.09-0.088,0.171-0.186,0.229-0.304c0.104-0.166,0.159-0.329,0.19-0.488
		c0.314-0.965,0.202-1.997-0.331-2.814c1.76-3.188,3.519-6.377,5.279-9.566c0.891-1.616-1.583-3.064-2.475-1.447
		c-1.764,3.194-3.782,6.362-5.462,9.634c-1.075,0.03-2.118,0.595-2.685,1.573c-0.864,1.492-0.281,3.442,1.187,4.296
		c0.348,0.202,0.713,0.315,1.082,0.368c0.167,0.391,0.33,0.768,0.451,1.11C40.285,97.277,41.027,99.374,41.77,101.471z"/>
	<path fill="#F2F2F2" d="M240.089,199.024c-1.938,1.064-3.877,2.13-5.815,3.195c-1.059-1.928-2.118-3.854-3.177-5.781
		c-0.887-1.613-3.227,0.043-2.346,1.647c1.263,2.298,2.524,4.595,3.786,6.892c0.4,0.729,1.383,0.688,1.997,0.35
		c2.4-1.318,4.801-2.637,7.201-3.957C243.35,200.484,241.694,198.143,240.089,199.024z"/>
	<path fill="#F2F2F2" d="M259.777,236.91c0.155-1.511-0.741-2.83-1.469-4.151c-1.253-2.281-2.505-4.562-3.759-6.843
		c-2.268-4.128-4.535-8.257-6.803-12.384c0.188-0.295,0.364-0.596,0.533-0.898c0.449-0.783,0.829-1.596,1.144-2.432
		c0.015-0.039,0.031-0.078,0.046-0.117c0.092-0.25,0.174-0.502,0.254-0.756c0.072-0.228,0.143-0.455,0.205-0.686
		c0.03-0.113,0.062-0.227,0.09-0.342c1.023-3.996,0.633-8.271-1.376-12.108c-0.023-0.044-0.053-0.079-0.078-0.12
		c-0.028-0.069-0.055-0.139-0.095-0.209c-2.39-4.171-6.308-7.018-10.793-8.111c-0.12-0.03-0.241-0.062-0.363-0.09
		c-0.203-0.045-0.408-0.082-0.614-0.119c-0.225-0.042-0.448-0.086-0.676-0.118c-0.125-0.019-0.252-0.028-0.378-0.044
		c-0.279-0.033-0.557-0.068-0.839-0.088c-0.481-0.035-0.967-0.045-1.455-0.041c-0.564-1.17-1.304-2.299-1.915-3.412
		c-1.683-3.062-3.365-6.126-5.048-9.188c-2.807-5.106-5.377-10.457-8.461-15.401c-1.928-3.09-4.82-1.453-7.228-0.131
		c-2.463,1.354-7.477,2.928-6.807,6.565c0.292,1.587,1.6,3.275,2.356,4.651c1.664,3.029,3.328,6.059,4.993,9.088
		c2.005,3.65,4.011,7.301,6.016,10.951c0.786,1.433,1.496,3.047,2.407,4.449c-0.026,0.041-0.057,0.08-0.082,0.12
		c-1.194,1.812-2.053,3.861-2.472,6.069c-0.365,1.924-0.364,3.859-0.062,5.734c0.025,0.172,0.055,0.344,0.086,0.515
		c0.023,0.12,0.046,0.241,0.072,0.36c0.37,1.827,1.04,3.617,2.046,5.299c1.209,2.021,2.823,3.699,4.693,4.997
		c0.388,0.279,0.786,0.546,1.202,0.794c2.256,1.34,4.774,2.082,7.326,2.258c0.54,0.047,1.082,0.068,1.627,0.066
		c1.923,3.502,3.847,7.004,5.771,10.507c1.384,2.52,2.768,5.039,4.153,7.56c0.648,1.18,1.204,2.594,2.07,3.642
		c0.411,0.499,0.85,0.828,1.305,1.03c-0.171,0.768-0.066,1.645,0.454,2.67c1.275,2.516,2.957,7.328,6.451,7.002
		c1.582-0.147,3.298-1.467,4.645-2.207c0.077-0.043,0.153-0.085,0.23-0.127c0.032-0.016,0.064-0.035,0.097-0.053
		c1.243-0.684,2.488-1.367,3.731-2.051c0.096-0.04,0.193-0.093,0.29-0.158c0.165-0.092,0.288-0.199,0.388-0.316
		c3.121-2.645-0.11-6.856-1.699-9.6C261.447,238,260.678,237.278,259.777,236.91z M215.963,182.102
		c-2.897-5.275-5.795-10.55-8.693-15.824c-0.144-0.262-0.569-0.771-0.591-1.077c-0.074-1.026,2.216-1.838,2.894-2.21
		c1.413-0.776,2.825-1.553,4.237-2.328c0.786-0.432,1.237-0.48,1.807,0.301c1.114,1.529,1.899,3.458,2.809,5.113
		c1.629,2.963,3.256,5.926,4.883,8.889c1.771,3.223,3.541,6.445,5.313,9.67c0.514,0.934,1.171,1.976,1.717,2.984
		c-3.377,0.717-6.408,2.433-8.742,4.836c-0.39-0.715-0.744-1.455-1.123-2.145C218.97,187.575,217.467,184.837,215.963,182.102z
		 M232.76,218.131c-2.377-0.19-4.662-0.951-6.646-2.209c-0.167-0.109-0.337-0.216-0.497-0.332c-0.03-0.02-0.06-0.041-0.089-0.062
		c-2.751-1.999-4.715-4.961-5.486-8.27c-0.705-3.207-0.262-6.6,1.252-9.569c0.031-0.059,0.06-0.12,0.091-0.179
		c0.053-0.098,0.11-0.193,0.165-0.291c1.758-3.042,4.623-5.414,8.095-6.494c1.194-0.373,2.401-0.568,3.595-0.604
		c0.018,0,0.035-0.002,0.053-0.002c0.372-0.01,0.741-0.002,1.108,0.02c0.029,0.001,0.056,0.001,0.085,0.003
		c4.756,0.299,9.154,3.108,11.603,7.392c0.31,0.588,0.568,1.193,0.789,1.809c0.067,0.197,0.135,0.395,0.193,0.592
		c0.02,0.062,0.038,0.125,0.057,0.188c0.692,2.426,0.752,4.946,0.174,7.357c-0.037,0.156-0.068,0.312-0.112,0.468
		c-0.013,0.048-0.031,0.095-0.044,0.144c-0.085,0.293-0.175,0.584-0.277,0.87c-0.012,0.03-0.025,0.061-0.037,0.091
		c-0.112,0.307-0.233,0.611-0.367,0.91c-0.002,0.004-0.005,0.008-0.006,0.012c-0.586,1.3-1.373,2.521-2.356,3.611
		C241.215,216.783,236.958,218.398,232.76,218.131z M248.14,240.672c-0.799-0.949-1.309-2.382-1.902-3.464
		c-1.279-2.327-2.557-4.653-3.835-6.979c-1.754-3.193-3.508-6.386-5.262-9.578c2.775-0.57,5.418-1.812,7.609-3.719
		c0.371-0.324,0.724-0.66,1.06-1.008c1.495,2.723,2.991,5.445,4.485,8.166c1.287,2.342,2.573,4.683,3.859,7.023
		c0.841,1.531,1.912,3.084,2.582,4.699c0.233,0.562,0.028,1.023-0.374,1.414c-0.988,0.478-1.944,1.104-2.884,1.62
		c-1.154,0.634-2.615,1.295-3.827,2.124C249.036,241.131,248.492,241.09,248.14,240.672z M254.419,250.479
		c-1.406,0.359-2.062-1.757-2.616-2.768c-0.663-1.207-2.321-2.984-1.025-4.129c0.066-0.061,0.155-0.109,0.229-0.166
		c0.71-0.323,1.403-0.723,2.052-1.086c1.265,2.305,2.53,4.608,3.797,6.912C256.054,249.759,255.207,250.278,254.419,250.479z
		 M261.654,246.506c-0.781,0.428-1.562,0.857-2.344,1.287c-1.231-2.243-2.464-4.486-3.697-6.729
		c0.867-0.424,1.752-0.896,2.483-1.464c1.291-0.245,1.832,1.501,2.356,2.456C261.039,243.124,263.098,245.509,261.654,246.506z"/>
	<path fill="#F2F2F2" d="M217.178,169.024c-0.037-0.075-0.08-0.148-0.126-0.218c-0.02-0.037-0.023-0.075-0.046-0.111
		c-0.688-1.115-2.223-1.425-3.315-0.733c-1.059,0.67-1.393,2.058-0.82,3.151c0.562,1.072,1.956,1.604,3.073,1.07
		C217.09,171.634,217.764,170.231,217.178,169.024z"/>
	<path fill="#F2F2F2" d="M220.54,175.141c-0.037-0.076-0.082-0.149-0.128-0.22c-0.02-0.036-0.023-0.074-0.045-0.11
		c-0.688-1.115-2.224-1.424-3.315-0.732c-1.058,0.67-1.392,2.058-0.819,3.151c0.562,1.071,1.955,1.604,3.072,1.069
		C220.453,177.752,221.125,176.348,220.54,175.141z"/>
	<path fill="#F2F2F2" d="M525.864,179.141c-1.625-0.375-2.702-1.494-2.785-3.19c0.089-1.615,1.205-2.968,2.854-3.166
		c1.156-0.138,1.897-0.981,1.658-2.177c-0.461-2.306-1.253-4.471-2.343-6.554c-0.417-0.8-1.596-1.101-2.352-0.616
		c-3.076,1.965-6.944-1.443-4.461-4.554c0.713-0.894,0.651-2.039-0.349-2.701c-2.182-1.445-4.538-2.497-7.066-3.176
		c-0.837-0.225-1.948,0.28-2.114,1.201c-0.72,3.954-5.805,3.844-6.439-0.103c-0.15-0.935-1.294-1.403-2.115-1.201
		c-2.718,0.67-5.253,1.783-7.579,3.342c-0.709,0.475-1.195,1.567-0.617,2.353c2.199,2.986-0.736,6.844-4.125,4.884
		c-0.774-0.448-1.921-0.212-2.353,0.618c-1.058,2.03-1.833,4.141-2.294,6.385c-0.248,1.198,0.509,2.032,1.657,2.177
		c3.822,0.481,3.462,5.584,0.012,6.358c-0.887,0.2-1.467,1.26-1.201,2.116c0.645,2.079,1.526,4.032,2.682,5.877
		c0.461,0.733,1.576,1.171,2.354,0.616c3.119-2.223,6.807,1.016,4.699,4.352c-0.488,0.773-0.175,1.912,0.617,2.354
		c1.909,1.064,3.908,1.868,6.027,2.404c0.831,0.211,1.96-0.268,2.115-1.201c0.659-3.944,5.744-4.002,6.439-0.045
		c0.163,0.925,1.286,1.419,2.115,1.201c2.003-0.523,3.897-1.287,5.711-2.281c0.796-0.438,1.103-1.582,0.617-2.354
		c-2.119-3.373,1.644-6.58,4.755-4.305c0.77,0.564,1.895,0.103,2.353-0.617c1.173-1.844,2.069-3.8,2.728-5.883
		C527.336,180.397,526.744,179.344,525.864,179.141z M522.216,183.941c-5.062-2.099-10.354,3.026-8.73,8.194
		c-0.63,0.287-1.271,0.54-1.927,0.764c-2.265-4.963-9.794-4.945-12.008,0.053c-0.759-0.253-1.5-0.543-2.225-0.881
		c1.642-5.144-3.587-10.258-8.652-8.24c-0.365-0.691-0.694-1.398-0.982-2.127c2.295-1.209,3.787-3.639,3.589-6.359
		c-0.197-2.682-1.896-4.645-4.179-5.578c0.249-0.885,0.547-1.748,0.91-2.593c5.142,1.388,10.082-3.848,7.948-8.845
		c1.182-0.668,2.408-1.211,3.698-1.637c2.179,5.014,9.704,5.063,12.007,0.12c1.125,0.396,2.198,0.881,3.239,1.462
		c-1.006,2.302-0.837,4.945,0.95,7.009c1.813,2.091,4.59,2.692,7.083,1.895c0.379,0.883,0.688,1.786,0.944,2.712
		c-2.27,0.917-3.81,2.848-4.156,5.428c-0.062,0.188-0.099,0.396-0.087,0.635c-0.012,0.223,0.021,0.417,0.073,0.595
		c0.285,2.291,1.545,4.203,3.512,5.249C522.928,182.531,522.591,183.243,522.216,183.941z"/>
	<path fill="#F2F2F2" d="M505.493,165.45c-5.107-0.015-9.395,4.263-9.409,9.364c-0.015,5.106,4.26,9.395,9.363,9.409
		c5.096,0.016,8.991-4.032,9.375-8.946c0.025-0.13,0.04-0.268,0.035-0.417c0.006-0.15-0.008-0.288-0.033-0.418
		C514.469,169.524,510.582,165.465,505.493,165.45z M505.447,180.784c-3.243-0.023-5.937-2.721-5.924-5.97
		c0.012-3.146,2.566-5.789,5.707-5.916c3.428-0.14,6.085,2.621,6.188,5.962C511.298,178.09,508.77,180.807,505.447,180.784z"/>
	<path fill="#F2F2F2" d="M553.555,100.416c17.813,5.739,37.523-2.3,46.637-18.521c7.858-14.453,6.09-32.502-4.656-45.021
		c-10.796-12.575-29.033-17.065-44.428-10.947c-15.396,6.119-25.687,21.601-25.053,38.22
		C526.685,80.673,537.81,95.342,553.555,100.416z M547.248,30.946c13.257-7.638,30.396-6.154,42.072,3.783
		c13.212,11.244,16.66,30.522,8.397,45.718c-7.482,13.317-22.714,20.997-37.896,18.532c-15.193-2.466-27.407-14.391-30.296-29.488
		C526.633,54.379,533.935,38.616,547.248,30.946z"/>
	<path fill="#F2F2F2" d="M536.887,71.704c2.302,7.228,7.272,13.417,13.882,17.205c0.165,0.14,0.357,0.245,0.56,0.312
		c1.614,0.88,3.309,1.635,5.094,2.211c5.781,1.866,11.813,1.818,17.373,0.203c0.26-0.015,0.514-0.092,0.735-0.223
		c7.2-2.288,13.541-7.226,17.411-14.078c5.978-11.053,4.645-24.776-3.581-34.339c-8.255-9.597-22.203-12.96-33.933-8.243
		c-11.636,4.68-19.413,16.418-18.952,29c0.094,2.527,0.52,4.991,1.22,7.356C536.719,71.317,536.787,71.52,536.887,71.704z
		 M541.185,50.717c2.355,1.301,4.711,2.603,7.065,3.904c1.616,0.893,3.062-1.581,1.447-2.475c-2.373-1.311-4.746-2.623-7.118-3.934
		c2.312-3.684,5.481-6.846,9.346-9.08c1.591-0.92,3.265-1.644,4.979-2.213c0.735,2.554,1.47,5.107,2.205,7.661
		c0.51,1.769,3.277,1.017,2.764-0.762c-0.735-2.557-1.473-5.114-2.209-7.671c5.974-1.302,12.297-0.578,17.823,2.071
		c-1.287,2.329-2.574,4.657-3.861,6.985c-0.893,1.616,1.582,3.062,2.476,1.446c1.301-2.354,2.603-4.708,3.903-7.062
		c1.125,0.696,2.209,1.475,3.232,2.347c3.893,3.319,6.618,7.575,8.134,12.199c-2.542,0.732-5.085,1.465-7.627,2.197
		c-1.769,0.51-1.017,3.276,0.763,2.764c2.538-0.731,5.075-1.462,7.612-2.193c1.259,5.812,0.648,12.009-1.979,17.601
		c-2.366-1.307-4.731-2.614-7.096-3.921c-1.615-0.893-3.062,1.581-1.446,2.475c2.391,1.321,4.781,2.643,7.17,3.965
		c-3.333,5.289-8.336,9.262-14.064,11.344c-0.725-2.518-1.449-5.035-2.175-7.553c-0.509-1.769-3.276-1.017-2.764,0.762
		c0.732,2.547,1.467,5.094,2.2,7.641c-3.384,0.841-6.949,1.039-10.524,0.476c-2.74-0.432-5.347-1.284-7.761-2.476
		c1.266-2.291,2.532-4.581,3.799-6.872c0.893-1.616-1.582-3.063-2.476-1.446c-1.273,2.304-2.547,4.608-3.821,6.912
		c-5.123-3.231-9.13-8.103-11.237-13.878c2.524-0.727,5.047-1.453,7.569-2.18c1.77-0.51,1.017-3.276-0.761-2.764
		c-2.544,0.732-5.086,1.465-7.629,2.197c-0.109-0.441-0.227-0.878-0.314-1.327C537.656,61.968,538.609,55.947,541.185,50.717z"/>
	<path fill="#F2F2F2" d="M564.036,65.469c0.347,0.202,0.713,0.315,1.081,0.368c0.168,0.391,0.33,0.768,0.451,1.11
		c0.744,2.097,1.487,4.194,2.229,6.291c0.612,1.727,3.383,0.983,2.765-0.762c-0.898-2.537-1.798-5.073-2.696-7.61
		c0.085-0.088,0.162-0.184,0.24-0.282c0.088-0.088,0.168-0.186,0.227-0.302c0.102-0.165,0.158-0.328,0.19-0.486
		c0.313-0.966,0.202-1.999-0.332-2.817c1.76-3.189,3.52-6.378,5.278-9.567c0.892-1.616-1.582-3.063-2.476-1.446
		c-1.762,3.194-3.78,6.361-5.46,9.633c-1.074,0.031-2.118,0.595-2.686,1.574C561.986,62.666,562.568,64.615,564.036,65.469z"/>
	<path fill="#F2F2F2" d="M792.126,273.774c-0.203-0.119-0.402-0.182-0.591-0.198c-1.661-0.472-3.321-0.943-4.982-1.415
		c0.413-1.106,0.826-2.213,1.238-3.318c0.33-0.883,0.032-1.786-0.942-2.063c-8.864-2.519-17.727-5.038-26.592-7.557
		c-0.718-0.204-1.588,0.335-1.72,1.07c-1.595,8.838-3.19,17.675-4.786,26.513c-0.143,0.789,0.295,1.5,1.071,1.721
		c7.322,2.08,14.645,4.161,21.966,6.242c0.545,0.155,1.381-0.162,1.594-0.728c0.853-2.278,1.708-4.558,2.562-6.835
		c1.792,0.509,3.585,1.018,5.378,1.527c0.841,0.239,1.665,0.574,2.532,0.223c0.95-0.387,1.235-1.309,1.497-2.193
		c0.728-2.459,1.402-4.934,2.102-7.398C792.983,277.501,794.276,275.04,792.126,273.774z M778.809,284.801
		c-0.853,2.271-1.704,4.544-2.556,6.815c-6.482-1.841-12.973-3.677-19.422-5.54c1.373-7.814,3.014-15.436,4.25-23.645
		c7.985,2.441,15.725,4.486,23.564,6.692c-0.412,1.106-0.824,2.213-1.237,3.318c-0.005,0.013-0.006,0.025-0.011,0.038
		C781.868,276.588,780.338,280.696,778.809,284.801z M790.194,276.846c-0.273,0.963-0.547,1.926-0.822,2.889
		c-0.585,2.064-1.173,4.127-1.758,6.191c-0.004,0.016-0.018,0.048-0.026,0.072c-0.615-0.229-1.657-0.354-2.035-0.461
		c-1.201-0.341-2.402-0.682-3.604-1.023c1.2-3.222,2.401-6.443,3.602-9.665c1.597,0.454,3.194,0.909,4.791,1.362
		C790.277,276.418,790.246,276.663,790.194,276.846z"/>
	<path fill="#F2F2F2" d="M650.963,57.465c2.532,1.046,5.063,2.092,7.595,3.138c1.703,0.704,2.445-2.068,0.762-2.764
		c-2.038-0.843-4.078-1.685-6.117-2.527c0.843-2.039,1.685-4.077,2.526-6.115c0.704-1.704-2.067-2.446-2.764-0.762
		c-1.001,2.422-2.002,4.845-3.003,7.268C649.642,56.479,650.324,57.201,650.963,57.465z"/>
	<path fill="#F2F2F2" d="M630.659,105.338c0.051,0.024,0.103,0.044,0.156,0.063c1.308,0.54,2.615,1.081,3.922,1.621
		c0.093,0.05,0.193,0.092,0.305,0.126c0.176,0.072,0.338,0.1,0.49,0.105c4.005,0.769,5.269-4.418,6.406-7.359
		c0.388-1.002,0.467-2.047,0.192-2.976c1.283-0.827,1.743-2.368,2.32-3.764c0.994-2.405,1.987-4.811,2.981-7.215
		c1.795-4.346,3.59-8.69,5.386-13.036c1.778-0.19,3.494-0.638,5.096-1.317c0.02-0.008,0.036-0.017,0.056-0.025
		c0.42-0.18,0.83-0.377,1.233-0.589c0.003-0.001,0.006-0.003,0.008-0.004c3.362-1.765,6.113-4.598,7.699-8.245
		c0.023-0.054,0.035-0.107,0.053-0.161c0.032-0.059,0.065-0.116,0.092-0.182c1.619-4.14,1.534-8.563-0.025-12.503
		c-0.013-0.033-0.025-0.067-0.038-0.101c-0.11-0.271-0.229-0.54-0.353-0.806c-0.071-0.158-0.143-0.316-0.219-0.471
		c-0.065-0.131-0.137-0.259-0.205-0.389c-0.135-0.254-0.27-0.508-0.418-0.756c-0.015-0.023-0.03-0.046-0.045-0.07
		c-0.194-0.323-0.397-0.642-0.614-0.953c-0.264-0.379-0.547-0.748-0.843-1.109c0.563-1.179,0.981-2.473,1.468-3.651
		c1.334-3.23,2.669-6.46,4.003-9.69c2.224-5.382,4.8-10.737,6.71-16.24c1.195-3.443-1.912-4.658-4.445-5.705
		c-2.592-1.071-6.998-4.011-9.391-1.166c-1.035,1.232-1.529,3.291-2.13,4.743c-1.319,3.194-2.639,6.389-3.959,9.583
		c-1.59,3.849-3.181,7.699-4.771,11.547c-0.621,1.502-1.43,3.057-1.953,4.636c-0.323,0.035-0.646,0.083-0.965,0.134
		c-1.898,0.273-3.764,0.857-5.51,1.786c-1.329,0.707-2.524,1.596-3.588,2.61c-1.535,1.423-2.818,3.137-3.733,5.114
		c-0.824,1.781-1.298,3.642-1.467,5.511c-0.016,0.151-0.03,0.301-0.042,0.453c-0.008,0.123-0.013,0.245-0.018,0.367
		c-0.06,1.101-0.023,2.213,0.142,3.323c0.377,2.539,1.352,4.921,2.768,6.991c0.035,0.053,0.067,0.107,0.104,0.16
		c0.002,0.004,0.006,0.008,0.008,0.012c0.282,0.416,0.587,0.819,0.906,1.214c-1.528,3.701-3.058,7.402-4.587,11.102
		c-1.098,2.657-2.195,5.314-3.294,7.972c-0.513,1.244-1.271,2.564-1.542,3.895c-0.128,0.628-0.11,1.172,0.016,1.649
		c-0.707,0.349-1.325,0.985-1.799,2.04c-1.159,2.578-3.879,6.912-1.39,9.422c1.115,1.125,3.204,1.632,4.623,2.219
		C630.524,105.282,630.592,105.311,630.659,105.338z M638.533,100.686c-0.474,1.147-1.026,4.208-2.729,3.699
		c-0.819-0.338-1.638-0.676-2.457-1.015c0.979-2.367,1.956-4.734,2.935-7.101c0.873,0.411,1.799,0.804,2.702,1.02
		C639.977,98.157,638.951,99.674,638.533,100.686z M653.854,37.077c1.192-2.886,2.385-5.771,3.576-8.657
		c2.298-5.562,4.597-11.125,6.894-16.687c0.113-0.273,0.244-0.928,0.47-1.136c0.743-0.683,2.84,0.603,3.548,0.896
		c1.49,0.615,2.979,1.23,4.468,1.846c0.837,0.346,1.139,0.677,0.874,1.609c-0.519,1.83-1.502,3.638-2.228,5.394
		c-1.291,3.124-2.582,6.249-3.873,9.373c-1.403,3.399-2.808,6.798-4.212,10.196c-0.404,0.978-0.804,2.135-1.247,3.186
		c-2.672-2.194-5.91-3.474-9.246-3.782C653.193,38.557,653.55,37.81,653.854,37.077z M637.355,56.751
		c-0.148-3.482,0.997-6.95,3.215-9.641c0.083-0.1,0.166-0.201,0.253-0.298c0.066-0.076,0.137-0.149,0.205-0.224
		c2.062-2.21,4.794-3.702,7.798-4.275c0.069-0.013,0.14-0.03,0.209-0.042c0.012-0.002,0.024-0.003,0.036-0.005
		c3.499-0.562,7.18,0.186,10.213,2.247c5.536,3.76,7.352,10.839,5.017,16.951c-1.301,2.891-3.416,5.252-6.034,6.773
		c-0.096,0.055-0.193,0.11-0.291,0.163c-0.163,0.09-0.329,0.174-0.496,0.258c-0.182,0.089-0.363,0.176-0.549,0.258
		c-0.091,0.041-0.182,0.079-0.274,0.117c-0.241,0.101-0.485,0.197-0.733,0.284c-0.049,0.017-0.099,0.033-0.147,0.05
		c-0.273,0.092-0.549,0.178-0.827,0.255c-0.057,0.015-0.113,0.028-0.17,0.043c-0.255,0.066-0.513,0.127-0.772,0.18
		c-0.182,0.036-0.364,0.066-0.548,0.095c-0.122,0.02-0.243,0.042-0.366,0.059c-0.695,0.089-1.404,0.129-2.128,0.111
		c-4.38-0.106-8.437-2.355-10.962-5.803c-0.067-0.096-0.14-0.188-0.205-0.286c-0.018-0.026-0.034-0.055-0.053-0.082
		C638.323,61.781,637.5,59.288,637.355,56.751z M631.913,90.183c0.206-1.202,1.046-2.531,1.51-3.652
		c1.014-2.453,2.026-4.906,3.04-7.36c1.387-3.359,2.775-6.718,4.163-10.078c2.117,1.761,4.654,3.025,7.435,3.56
		c0.562,0.108,1.126,0.178,1.688,0.229c-1.189,2.878-2.379,5.756-3.568,8.635c-1.02,2.469-2.04,4.938-3.06,7.407
		c-0.663,1.603-1.188,3.443-2.047,4.955c-0.296,0.521-0.782,0.646-1.337,0.576c-0.994-0.471-2.08-0.826-3.076-1.237
		c-0.004-0.001-0.009-0.003-0.013-0.005c-1.188-0.491-2.571-1.19-3.937-1.615C632.12,91.361,631.753,91.122,631.913,90.183z
		 M628.718,97.447c0.53-1.283,0.869-3.673,2.59-3.362c0.083,0.015,0.172,0.051,0.256,0.073c0.697,0.35,1.443,0.638,2.133,0.916
		c-1.006,2.433-2.01,4.865-3.015,7.298c-0.919-0.303-1.878-0.642-2.507-1.138C627.042,100.342,628.277,98.515,628.718,97.447z"/>
	<path fill="#F2F2F2" d="M665.163,22.221c1.154,0.547,2.656,0.168,3.229-1.041c0.019-0.039,0.03-0.08,0.046-0.12
		c0.036-0.071,0.071-0.144,0.1-0.222c0.439-1.24-0.31-2.621-1.527-3.032c-1.185-0.399-2.48,0.221-2.961,1.356
		C663.578,20.279,664.039,21.688,665.163,22.221z"/>
	<path fill="#F2F2F2" d="M665.726,27.631c0.021-0.042,0.033-0.087,0.05-0.13c0.035-0.068,0.067-0.137,0.095-0.212
		c0.44-1.24-0.309-2.62-1.527-3.032c-1.185-0.399-2.48,0.221-2.96,1.357c-0.471,1.117-0.01,2.525,1.114,3.058
		C663.651,29.219,665.154,28.84,665.726,27.631z"/>
	<path fill="#F2F2F2" d="M592.397,170.786c0.716,0.555,1.33,1.361,1.961,2.006c1.693,1.732,3.387,3.463,5.08,5.195
		c0.942,0.964,2.386,0.662,2.921-0.552c2.575-5.841,1.499-12.853-2.896-17.536c-4.36-4.644-10.767-6.109-16.702-4.27
		c-7.492-7.675-14.894-15.452-22.504-23.009c-2.429-2.411-5.421-2.484-7.88-0.08c-1.105,1.081-2.489,2.143-3.337,3.452
		c-1.249,1.929-0.856,4.373,0.607,6.053c3.431,3.941,7.368,7.536,11.021,11.271c3.98,4.071,7.962,8.141,11.941,12.212
		c-1.993,5.767-0.652,12.315,3.776,16.657c4.761,4.668,11.684,5.863,17.805,3.342c0.64-0.263,0.93-0.744,0.966-1.256
		c0.114-0.455,0.018-0.961-0.426-1.413c-1.649-1.688-3.3-3.376-4.949-5.063c-0.676-0.69-1.454-1.355-2.062-2.107
		c-1.233-1.527-0.331-2.717,0.839-3.861C589.655,170.753,590.87,169.602,592.397,170.786z M583.677,174.886
		c0.202,1.579,1.063,2.667,2.125,3.753c1.477,1.51,2.952,3.019,4.428,4.527c-4.2,0.822-8.654-0.457-11.667-3.664
		c-3.563-3.791-4.329-9.072-2.338-13.814c0.223-0.531,0.081-1.287-0.321-1.7c-7.455-7.623-14.908-15.246-22.362-22.87
		c-0.398-0.408-0.853-0.799-1.214-1.241c-0.977-1.197-0.5-1.998,0.44-2.917c0.815-0.796,2.028-2.548,3.202-2.801
		c0.88-0.19,1.356,0.377,1.885,0.917c3.987,4.078,7.974,8.155,11.961,12.232c3.723,3.808,7.445,7.616,11.169,11.423
		c0.576,0.591,1.307,0.713,2.059,0.417c5.001-1.964,10.681-0.642,14.214,3.441c2.692,3.113,3.566,7.178,2.725,11.043
		c-1.427-1.459-2.854-2.918-4.281-4.378c-1.049-1.072-2.07-2.024-3.618-2.317c-2.378-0.451-4.163,0.713-5.778,2.291
		C584.707,170.79,583.37,172.49,583.677,174.886z"/>
	<path fill="#F2F2F2" d="M708.097,175.01c0.383-0.667,0.163-1.572-0.514-1.961c-7.256-4.162-14.511-8.325-21.766-12.488
		c1.367-2.381,2.732-4.761,4.099-7.142c1.287-2.242,2.573-4.484,3.859-6.726c0.383-0.667,0.163-1.572-0.514-1.961
		c-9.391-5.387-18.779-10.775-28.169-16.163c-1.36-0.781-2.723-1.562-4.084-2.344c-0.667-0.383-1.572-0.163-1.96,0.514
		c-8.985,15.658-17.969,31.315-26.953,46.974c-1.287,2.242-2.573,4.484-3.859,6.726c-0.384,0.668-0.163,1.573,0.514,1.961
		c9.39,5.388,18.778,10.776,28.168,16.163c1.361,0.781,2.723,1.562,4.085,2.344c7.665,4.398,15.332,8.798,22.997,13.196
		c0.339,0.194,0.668,0.23,0.966,0.168c0.381-0.042,0.745-0.247,0.995-0.683c6.465-11.266,12.929-22.531,19.394-33.797
		C706.269,178.198,707.183,176.604,708.097,175.01z M634.281,182.268c-0.95-0.544-1.899-1.09-2.851-1.635
		c8.745-15.24,17.489-30.48,26.234-45.72c1.05-1.832,2.101-3.663,3.151-5.493c8.973,5.147,17.944,10.296,26.916,15.444
		c0.949,0.545,1.899,1.091,2.851,1.636c-8.745,15.24-17.49,30.48-26.235,45.72c-1.05,1.831-2.101,3.662-3.151,5.493
		C652.224,192.565,643.252,187.417,634.281,182.268z M686.229,207.362c-0.679,1.182-1.356,2.364-2.035,3.547
		c-6.837-3.924-13.675-7.847-20.512-11.77c6.287-10.955,12.573-21.911,18.859-32.867c0.617-1.074,1.233-2.149,1.851-3.225
		c6.837,3.923,13.674,7.847,20.511,11.77C698.678,185.665,692.455,196.513,686.229,207.362z"/>
	
		<rect x="661.708" y="142.691" transform="matrix(0.8674 0.4976 -0.4976 0.8674 160.1254 -311.1544)" fill="#F2F2F2" width="4.354" height="4.353"/>
	
		<rect x="673.93" y="149.704" transform="matrix(0.8673 0.4977 -0.4977 0.8673 165.2882 -316.363)" fill="#F2F2F2" width="4.353" height="4.354"/>
	
		<rect x="653.877" y="156.337" transform="matrix(0.4976 -0.8674 0.8674 0.4976 192.0847 648.6835)" fill="#F2F2F2" width="4.353" height="4.353"/>
	
		<rect x="666.1" y="163.35" transform="matrix(-0.4976 0.8674 -0.8674 -0.4976 1144.411 -331.7537)" fill="#F2F2F2" width="4.353" height="4.354"/>
	
		<rect x="646.046" y="169.984" transform="matrix(-0.8673 -0.4977 0.4977 -0.8673 1124.7701 644.1093)" fill="#F2F2F2" width="4.354" height="4.354"/>
	
		<rect x="658.269" y="176.997" transform="matrix(-0.8673 -0.4978 0.4978 -0.8673 1144.0483 663.3433)" fill="#F2F2F2" width="4.353" height="4.354"/>
	
		<rect x="679.578" y="189.225" transform="matrix(-0.8673 -0.4977 0.4977 -0.8673 1177.8098 696.7285)" fill="#F2F2F2" width="4.354" height="4.354"/>
	
		<rect x="686.591" y="177.002" transform="matrix(0.8673 0.4978 -0.4978 0.8673 180.6034 -319.0931)" fill="#F2F2F2" width="4.353" height="4.354"/>
	<path fill="#F2F2F2" d="M798.297,37.535c1.16-0.129,1.893-0.99,1.659-2.177c-0.545-2.762-1.493-5.37-2.804-7.859
		c-0.418-0.792-1.601-1.109-2.354-0.617c-4.088,2.673-9.133-2.104-5.851-6.095c0.729-0.886,0.639-2.043-0.349-2.701
		c-2.61-1.742-5.448-3.01-8.48-3.814c-0.832-0.221-1.956,0.276-2.115,1.201c-0.888,5.151-7.734,5.021-8.512-0.125
		c-0.142-0.938-1.3-1.398-2.115-1.201c-3.265,0.793-6.318,2.137-9.104,4.016c-0.702,0.475-1.202,1.57-0.616,2.353
		c2.93,3.914-1.119,9.013-5.503,6.422c-0.772-0.457-1.922-0.205-2.352,0.616c-1.273,2.429-2.2,4.968-2.746,7.656
		c-0.241,1.191,0.504,2.041,1.658,2.177c5.005,0.587,4.754,7.417,0.11,8.429c-0.89,0.194-1.462,1.264-1.2,2.116
		c0.765,2.489,1.825,4.835,3.215,7.038c0.459,0.728,1.578,1.178,2.353,0.617c4.073-2.951,8.983,1.463,6.199,5.776
		c-0.498,0.771-0.166,1.914,0.617,2.353c2.28,1.281,4.684,2.245,7.222,2.879c0.824,0.206,1.968-0.263,2.116-1.201
		c0.809-5.144,7.655-5.208,8.512-0.054c0.153,0.926,1.291,1.416,2.115,1.201c2.396-0.624,4.668-1.536,6.837-2.731
		c0.789-0.434,1.11-1.584,0.616-2.353c-2.797-4.354,2.205-8.739,6.266-5.719c0.768,0.57,1.896,0.096,2.354-0.617
		c1.411-2.203,2.488-4.551,3.271-7.046c0.268-0.856-0.317-1.917-1.201-2.115c-2.133-0.479-3.551-1.996-3.645-4.222
		C794.571,39.572,796.092,37.78,798.297,37.535z M791.098,42.288c0.295,2.82,1.895,5.18,4.377,6.368
		c-0.433,1.128-0.939,2.215-1.526,3.271c-2.77-1.237-6.102-0.816-8.402,1.328c-2.329,2.171-2.932,5.453-1.89,8.31
		c-0.967,0.457-1.954,0.848-2.97,1.181c-1.159-2.813-3.906-4.801-7.063-4.812c-3.194-0.012-5.979,2.021-7.126,4.878
		c-1.143-0.364-2.248-0.806-3.329-1.327c2.287-6.146-4.189-12.443-10.226-9.726c-0.568-1.041-1.059-2.111-1.479-3.222
		c2.877-1.367,4.776-4.368,4.428-7.684c-0.329-3.129-2.369-5.423-5.118-6.419c0.349-1.299,0.8-2.556,1.351-3.785
		c2.788,0.896,5.902,0.298,8.008-1.94c2.177-2.313,2.614-5.689,1.346-8.477c1.638-0.958,3.35-1.717,5.159-2.287
		c1.134,2.859,3.911,4.881,7.101,4.901c3.15,0.019,5.896-1.965,7.077-4.758c1.59,0.535,3.102,1.217,4.554,2.055
		c-1.296,2.67-1.146,5.833,0.874,8.285c2.146,2.602,5.615,3.357,8.632,2.251c0.562,1.262,1.019,2.555,1.369,3.891
		c-2.886,1.03-4.861,3.486-5.171,6.717c-0.029,0.14-0.047,0.289-0.04,0.453C791.023,41.942,791.052,42.121,791.098,42.288z"/>
	<path fill="#F2F2F2" d="M777.239,30.038c-4.282-1.574-9.264-0.224-12.181,3.273c-6.483,7.772,0.478,19.673,10.416,17.907
		c5.26-0.935,8.867-5.573,9.028-10.802C784.387,35.783,781.637,31.656,777.239,30.038z M773.458,47.965
		c-4.141-0.016-7.555-3.471-7.549-7.604c0.005-4.131,3.479-7.566,7.604-7.549c4.223,0.018,7.445,3.472,7.549,7.604
		C780.935,44.545,777.675,47.981,773.458,47.965z"/>
	<path fill="#F2F2F2" d="M687.138,108.243c-0.308,1.548-0.837,3.293-0.535,4.87c0.419,2.175,2.064,3.791,4.189,4.328
		c2.847,0.72,5.821,1.107,8.704,1.656c6.395,1.216,12.79,2.434,19.186,3.65c10.852,2.064,21.689,4.223,32.558,6.193
		c0.194,0.036,0.387,0.074,0.58,0.111c0.104,0.02,0.204,0.024,0.304,0.027c0.051,0.011,0.099,0.028,0.153,0.035
		c2.339,0.282,4.604-0.945,5.619-3.08c0.606-1.278,0.759-2.867,0.992-4.249c0.543-3.227-1.049-6.059-4.332-6.814
		c-0.012-0.003-0.024-0.005-0.036-0.008c1.597-13.173-5.112-26.192-17.235-31.943c0.265-1.537,0.393-3.053-0.154-4.604
		c-0.939-2.667-3.279-4.6-6.038-5.125c-2.688-0.511-5.396,0.133-7.331,2.152c-1.296,1.353-1.782,2.957-2.14,4.672
		c-13.231,1.086-24.358,10.46-27.613,23.335c-0.044-0.007-0.089-0.017-0.135-0.024C690.421,102.854,687.805,104.89,687.138,108.243z
		 M736.622,86.529c10.076,5.354,15.906,16.328,14.532,27.735c-2.401-0.459-4.819-0.86-7.212-1.315
		c-3.972-0.755-7.943-1.511-11.914-2.267C733.559,102.632,735.09,94.581,736.622,86.529z M724.486,82.207c0-0.001,0-0.002,0-0.003
		c0-0.004,0-0.009,0-0.014c0-0.004,0-0.008,0-0.013c0-0.001,0-0.002,0-0.003c0-1.033,0.399-2.227,0.839-3.189
		c0.846-1.85,2.9-2.701,4.84-2.378c1.858,0.309,3.463,1.554,3.861,3.461c0.242,1.167-0.116,2.349-0.333,3.495
		c-0.002,0.008,0,0.015-0.001,0.022c-0.001,0.006-0.003,0.011-0.004,0.017c-0.017,0.088-0.034,0.175-0.05,0.263
		c-0.016,0.063-0.026,0.125-0.035,0.188c-1.648,8.663-3.297,17.327-4.943,25.99c-1.629-0.31-3.256-0.62-4.885-0.929
		c-1.348-0.257-2.804-0.513-4.153-0.769C721.281,99.631,722.486,90.919,724.486,82.207z M720.942,83.634
		c-1.526,8.023-3.053,16.046-4.578,24.069c-2.849-0.542-5.697-1.083-8.545-1.625c-1.23-0.234-2.461-0.468-3.691-0.702
		c-2.235-0.425-4.469-0.884-6.707-1.311C700.38,93.067,709.602,84.916,720.942,83.634z M690.583,108.485
		c0.44-1.609,2.02-1.832,3.734-1.621c0.156,0.111,0.332,0.199,0.54,0.238c4.35,0.828,8.699,1.655,13.05,2.483
		c3.009,0.572,6.017,1.145,9.025,1.717c0.384,0.216,0.83,0.304,1.241,0.236c3.685,0.701,7.37,1.402,11.055,2.103
		c0.384,0.216,0.83,0.304,1.24,0.236c1.359,0.259,2.721,0.518,4.08,0.776c2.035,0.387,4.07,1.053,6.105,1.44
		c3.827,0.728,7.653,1.463,11.48,2.463c0.001,0,0.002,0,0.004,0c0.418,0,0.839-0.125,1.256-0.04
		c0.236,0.048,0.479-0.063,0.709,0.013c2.084,0.685,1.435,2.576,1.133,4.171c-0.326,1.708-0.755,3.177-2.806,3.009
		c-8.02-1.525-16.039-3.068-24.059-4.594c-11.207-2.132-22.413-4.273-33.62-6.404c-0.966-0.185-1.965-0.318-2.919-0.56
		C689.155,113.472,690.03,110.505,690.583,108.485z"/>
	<path fill="#F2F2F2" d="M766.939,154.567c-0.101-2.508-1.562-4.841-4.01-5.656c-1.078-0.358-2.179-0.354-3.293-0.354
		c-3.811,0-7.621,0-11.431,0c-3.084,0-6.185-0.054-9.268,0.042c-2.088,0.065-4.038,0.973-5.169,2.803
		c-0.893,1.446-0.892,3.003-0.892,4.624c0,3.688-0.044,7.384,0,11.072c0.047,3.896,2.283,6.339,6.104,6.374
		c2.979,0.027,5.504,0.027,8.504,0.023c0,1.804,0,5.062,0,7.062c-2,0-4,0-7,0c-2,0-2,3,0,3c0,0,4.614,0,8.912,0
		c0.489,0,1.048,0,1.441,0c3.018,0,5.646,0,7.646,0s2-3,0-3s-5,0-8,0c0-2,0-4.83,0-7.06c4-0.009,6.9-0.022,10.139-0.022
		c0.139,0,0.479-0.021,0.597-0.052c2.708-0.308,5.088-2.134,5.53-4.939c0.182-1.15,0.135-2.372,0.135-3.53
		C766.886,161.5,767.079,158.017,766.939,154.567z M761.05,171.557c-5.76,0-11.519,0-17.277,0c-1.875,0-5.951,0.133-7.531-1.17
		c-1.203-0.99-1.756-2.802-1.756-4.186c0-1.715,0-3.429,0-5.144c0-1.674,0-3.347,0-5.021c0-1.296,0.51-2.604,1.52-3.615
		c1.51-1.51,5.694-0.865,7.607-0.865c3.697,0,7.394,0,11.091,0c2.089,0,4.257-0.195,6.342-0.024
		c4.213,0.344,3.027,6.923,3.027,9.824C764.073,164.203,765.32,170.557,761.05,171.557z"/>
	<path fill="#F2F2F2" d="M662.152,269.993c-3.016-7.485-6.029-14.973-9.046-22.458c-1.694-4.207-3.389-8.415-5.084-12.622
		c4.049-2.565,6.041-7.652,4.386-12.308c-1.646-4.628-6.404-7.54-11.272-6.862c-4.922,0.684-8.706,4.848-8.983,9.802
		c-0.264,4.728,2.829,8.898,7.17,10.394c-1.709,11.411-3.414,22.823-5.121,34.235c-0.876,5.849-1.751,11.699-2.626,17.55
		c-0.18,1.202-0.408,2.103,0.473,3.099c1.771,2.001,3.628,3.932,5.439,5.896c4.676,5.068,9.353,10.137,14.028,15.205
		c0.622,0.675,1.812,0.491,2.252-0.289c2.88-5.121,5.761-10.243,8.642-15.364c1.609-2.861,3.219-5.722,4.829-8.583
		c0.614-1.094,1.219-1.887,0.777-3.137C666.274,279.633,664.1,274.831,662.152,269.993z M639.692,294.883
		c-1.811-1.962-3.62-3.924-5.431-5.886c2.338-15.628,4.676-31.256,7.014-46.884c0.341-2.276,0.682-4.553,1.021-6.829
		c0.11-0.731-0.172-1.583-1-1.763c-3.675-0.797-6.403-3.862-6.285-7.719c0.11-3.574,2.837-6.651,6.363-7.221
		c3.48-0.562,7.023,1.482,8.27,4.784c1.47,3.896-0.511,7.925-4.137,9.675c-0.172,0.082-0.303,0.188-0.411,0.301
		c-0.023,0.021-0.047,0.042-0.068,0.064c-0.002,0.003-0.004,0.006-0.006,0.008c-0.271,0.3-0.382,0.727-0.173,1.244
		c0.904,2.245,1.81,4.49,2.714,6.735c-2.417,16.422-4.834,32.845-7.249,49.267C640.106,292.069,639.899,293.476,639.692,294.883z
		 M646.81,302.599c-1.546-1.675-3.092-3.351-4.638-5.026c2.388-16.228,4.774-32.454,7.163-48.682
		c0.111-0.756,0.223-1.512,0.333-2.268c1.406,3.492,2.813,6.983,4.22,10.475c-2.178,14-4.355,28-6.533,41.998
		C647.174,300.264,646.992,301.432,646.81,302.599z M652.245,308.491c-0.988-1.072-1.979-2.146-2.968-3.218
		c2.17-13.95,4.34-27.899,6.51-41.849c0.061-0.388,0.12-0.775,0.181-1.163c2.306,5.725,4.611,11.449,6.917,17.174
		c0.794,1.97,1.587,3.94,2.381,5.911C660.925,293.061,656.585,300.776,652.245,308.491z"/>
	<path fill="#F2F2F2" d="M190.413,104.764c1.269-1.176,2.534-2.352,3.801-3.528c1.201,1.293,2.4,2.586,3.601,3.879
		c1.259,1.354,3.281-0.676,2.027-2.027c-1.176-1.267-2.353-2.534-3.528-3.801c1.292-1.2,2.585-2.4,3.878-3.601
		c1.354-1.257-0.675-3.281-2.025-2.026c-1.268,1.176-2.534,2.352-3.801,3.528c-1.201-1.293-2.401-2.585-3.601-3.878
		c-1.259-1.355-3.282,0.676-2.027,2.027c1.176,1.267,2.353,2.534,3.528,3.8c-1.292,1.201-2.585,2.401-3.878,3.601
		C187.032,103.995,189.062,106.018,190.413,104.764z"/>
	<path fill="#F2F2F2" d="M507.765,30.449c1.268-1.176,2.534-2.352,3.801-3.528c1.201,1.292,2.4,2.585,3.601,3.878
		c1.258,1.355,3.28-0.676,2.026-2.027c-1.176-1.267-2.352-2.534-3.528-3.8c1.293-1.201,2.586-2.401,3.879-3.601
		c1.354-1.257-0.676-3.281-2.026-2.026c-1.268,1.176-2.534,2.352-3.801,3.528c-1.2-1.293-2.401-2.586-3.601-3.879
		c-1.259-1.354-3.281,0.676-2.027,2.027c1.177,1.267,2.353,2.534,3.528,3.8c-1.292,1.201-2.586,2.4-3.878,3.601
		C504.384,29.68,506.415,31.704,507.765,30.449z"/>
	<path fill="#F2F2F2" d="M777.931,210.247c1.267-1.176,2.533-2.352,3.8-3.527c1.2,1.293,2.401,2.586,3.601,3.879
		c1.259,1.354,3.281-0.677,2.027-2.027c-1.176-1.268-2.353-2.534-3.528-3.801c1.292-1.2,2.585-2.4,3.878-3.601
		c1.355-1.257-0.676-3.281-2.026-2.026c-1.267,1.176-2.534,2.352-3.801,3.527c-1.2-1.293-2.399-2.585-3.601-3.878
		c-1.258-1.354-3.281,0.677-2.027,2.026c1.177,1.268,2.353,2.534,3.528,3.801c-1.293,1.201-2.585,2.4-3.878,3.602
		C774.549,209.478,776.58,211.501,777.931,210.247z"/>
	<path fill="#F2F2F2" d="M250.486,287.557c-9,0-17,0-26,0c-1,0-1,3,0,3c0,0,17,0,26,0
		C252.486,290.557,252.486,287.557,250.486,287.557z"/>
	<path fill="#F2F2F2" d="M217.486,290.557c2,0,2-3,0-3c-1,0-2,0-3,0s-1,3,0,3C214.486,290.557,216.486,290.557,217.486,290.557z"/>
	<path fill="#F2F2F2" d="M240.486,295.557c-8,0-17,0-26,0c-2,0-2,3,0,3c0,0,18,0,26,0
		C242.486,298.557,242.486,295.557,240.486,295.557z"/>
	<path fill="#F2F2F2" d="M207.486,295.557c-1,0-2,0-3,0c-2,0-2,3,0,3c0,0,2,0,3,0C209.486,298.557,209.486,295.557,207.486,295.557z
		"/>
	<path fill="#F2F2F2" d="M501.486,110.557c0,0,16,0,25,0c2,0,2-3,0-3c-9,0-17,0-25,0
		C499.486,107.557,499.486,110.557,501.486,110.557z"/>
	<path fill="#F2F2F2" d="M490.486,110.557c0,0,2,0,3,0c2,0,2-3,0-3c-1,0-2,0-3,0C488.486,107.557,488.486,110.557,490.486,110.557z"
		/>
	<path fill="#F2F2F2" d="M490.486,118.557c0,0,17,0,26,0c2,0,2-2,0-2c-9,0-17,0-26,0
		C488.486,116.557,488.486,118.557,490.486,118.557z"/>
	<path fill="#F2F2F2" d="M480.486,118.557c0,0,2,0,3,0c2,0,2-2,0-2c-1,0-2,0-3,0C478.486,116.557,478.486,118.557,480.486,118.557z"
		/>
	<path fill="#F2F2F2" d="M705.486,32.557c0,0,18,0,26,0c2,0,2-3,0-3c-8,0-16,0-26,0C704.486,29.557,704.486,32.557,705.486,32.557z"
		/>
	<path fill="#F2F2F2" d="M695.486,32.557c0,0,3,0,4,0s1-3,0-3s-2,0-4,0C694.486,29.557,694.486,32.557,695.486,32.557z"/>
	<path fill="#F2F2F2" d="M695.486,40.557c0,0,17,0,26,0c2,0,2-3,0-3c-9,0-17,0-26,0C693.486,37.557,693.486,40.557,695.486,40.557z"
		/>
	<path fill="#F2F2F2" d="M685.486,40.557c0,0,2,0,3,0c2,0,2-3,0-3c-1,0-2,0-3,0C683.486,37.557,683.486,40.557,685.486,40.557z"/>
	<path fill="#F2F2F2" d="M31.486,27.557c0,0,18,0,26,0c2,0,2-3,0-3c-8,0-17,0-26,0C29.486,24.557,29.486,27.557,31.486,27.557z"/>
	<path fill="#F2F2F2" d="M21.486,27.557c0,0,2,0,3,0c2,0,2-3,0-3c-1,0-2,0-3,0C19.486,24.557,19.486,27.557,21.486,27.557z"/>
	<path fill="#F2F2F2" d="M21.486,34.557c0,0,17,0,26,0c2,0,2-2,0-2c-9,0-17,0-26,0C19.486,32.557,19.486,34.557,21.486,34.557z"/>
	<path fill="#F2F2F2" d="M11.486,34.557c0,0,2,0,3,0c2,0,2-2,0-2c-1,0-2,0-3,0C8.486,32.557,8.486,34.557,11.486,34.557z"/>
	<path fill="#F2F2F2" d="M26.463,272.447c-1.268,1.177-2.534,2.353-3.802,3.528c-1.2-1.293-2.4-2.586-3.6-3.878
		c-1.259-1.354-3.282,0.675-2.027,2.026c1.176,1.268,2.353,2.533,3.528,3.801c-1.293,1.199-2.586,2.4-3.879,3.6
		c-1.354,1.258,0.676,3.281,2.026,2.027c1.268-1.176,2.534-2.353,3.801-3.529c1.201,1.294,2.4,2.587,3.601,3.88
		c1.259,1.354,3.282-0.676,2.027-2.026c-1.176-1.268-2.353-2.534-3.528-3.802c1.292-1.2,2.585-2.399,3.878-3.601
		C29.843,273.216,27.813,271.193,26.463,272.447z"/>
	<path fill="#F2F2F2" d="M289.855,55.208c5.997,9.371,11.924,18.958,18.189,28.153c0.347,0.509,0.787,0.952,1.27,1.339
		c0.12,0.564,0.517,1.07,1.039,1.259c6.941,4.72,13.848,9.439,20.788,14.16c0.215,0.342,0.55,0.522,0.919,0.565
		c1.133,0.423,2.109-0.776,1.931-1.864c-0.004-0.036-0.002-0.069-0.008-0.106c-1.432-8.607-2.863-17.215-4.295-25.822
		c-0.053-0.311-0.229-0.562-0.46-0.754c-0.734-2.886-3.228-5.734-4.713-8.053c-3.622-5.659-7.244-11.318-10.865-16.977
		c-6.761-10.565-13.522-21.13-20.284-31.695c-0.896-1.398-1.749-2.748-3.396-3.397c-3.167-1.247-5.715,0.943-8.219,2.545
		c-2.629,1.683-5.319,3.296-7.898,5.055c-2.673,1.824-3.46,4.954-1.803,7.774C277.616,36.857,283.935,45.958,289.855,55.208z
		 M329.628,91.726c0.223,1.338,0.446,2.676,0.668,4.014c-1.12-0.756-2.238-1.512-3.363-2.268c0.122-0.201,0.246-0.389,0.349-0.51
		C327.937,92.196,328.726,91.829,329.628,91.726z M329.112,88.62c-1.977,0.291-3.714,1.419-4.804,3.089
		c-3.596-2.417-7.16-4.833-10.629-7.25c4.44-2.842,8.882-5.685,13.321-8.527C327.705,80.161,328.408,84.391,329.112,88.62z
		 M286.338,15.38c1.743-1.025,3.045-0.322,3.997,1.167c6.032,9.424,12.063,18.849,18.096,28.273
		c5.73,8.953,11.835,17.764,17.232,26.925c0.199,0.34,0.36,0.646,0.469,0.988c-1.193,0.764-2.388,1.528-3.581,2.292
		c-4.139-6.468-8.279-12.936-12.419-19.404c-7.045-11.009-14.092-22.017-21.136-33.026c-1.356-2.118-2.712-4.237-4.068-6.355
		C285.396,15.949,285.865,15.659,286.338,15.38z M282.262,17.942c4.129,6.452,8.258,12.903,12.387,19.354
		c7.046,11.009,14.091,22.017,21.138,33.025c1.366,2.136,2.733,4.272,4.101,6.408c-0.92,0.588-1.839,1.177-2.759,1.766
		c-4.14-6.468-8.279-12.937-12.419-19.405c-7.044-11.008-14.091-22.017-21.137-33.025c-1.35-2.111-2.701-4.221-4.051-6.331
		C280.436,19.141,281.348,18.541,282.262,17.942z M276.82,21.38c4.136,6.462,8.271,12.924,12.407,19.386
		c7.045,11.008,14.091,22.017,21.137,33.025c1.367,2.136,2.734,4.272,4.101,6.409c-1.104,0.707-2.209,1.414-3.313,2.121
		c-0.622-0.56-1.004-1.283-1.488-2.041c-1.037-1.621-2.078-3.242-3.115-4.863c-3.41-5.328-6.82-10.656-10.231-15.984
		c-6.704-10.475-13.408-20.95-20.114-31.425c-0.49-0.768-1.086-1.531-1.5-2.345C273.69,23.671,275.184,22.391,276.82,21.38z"/>
	<path fill="#F2F2F2" d="M755.351,221.735c-0.423-3.259-3.521-4.518-6.022-5.984c-2.69-1.578-5.347-3.257-8.088-4.744
		c-2.861-1.552-5.987-0.734-7.725,2.012c-5.875,9.286-11.153,19.012-16.713,28.488c-5.627,9.593-11.6,19.059-16.911,28.831
		c-0.359,0.659-0.594,1.321-0.724,2.021c-0.06,0.072-0.112,0.148-0.16,0.229c-0.061,0.102-0.111,0.208-0.149,0.319
		c-0.029,0.075-0.049,0.154-0.069,0.234c-0.001,0.006-0.003,0.012-0.004,0.018c-0.018,0.072-0.041,0.143-0.051,0.219
		c-1.098,8.656-2.194,17.312-3.292,25.969c-0.104,0.818,0.36,1.296,0.962,1.447c0.407,0.28,0.94,0.327,1.494-0.082
		c7.021-5.181,14.004-10.362,21.023-15.544c0.301-0.222,0.512-0.522,0.636-0.845c2.361-1.928,3.739-5.629,5.139-8.014
		c3.4-5.796,6.797-11.591,10.196-17.387c6.347-10.818,12.691-21.639,19.039-32.457C754.805,224.977,755.591,223.571,755.351,221.735
		z M746.862,217.917c-3.889,6.628-7.777,13.256-11.666,19.885c-6.612,11.272-13.227,22.547-19.84,33.82
		c-1.271,2.169-2.543,4.336-3.814,6.505c-0.941-0.553-1.882-1.104-2.823-1.656c3.897-6.643,7.793-13.285,11.69-19.928
		c6.613-11.273,13.227-22.547,19.84-33.82c1.258-2.143,2.514-4.285,3.771-6.427C744.964,216.838,745.915,217.375,746.862,217.917z
		 M703.514,270.417c0.974-1.661,1.948-3.32,2.922-4.98c3.201-5.456,6.402-10.913,9.603-16.37
		c6.294-10.727,12.586-21.454,18.879-32.181c0.458-0.781,0.861-1.678,1.409-2.401c1.375-1.818,3.303-0.908,4.995,0.153
		c-3.893,6.636-7.785,13.271-11.678,19.907c-6.614,11.273-13.227,22.546-19.841,33.82c-1.271,2.168-2.543,4.336-3.814,6.504
		c-1.221-0.716-2.44-1.432-3.662-2.148C702.55,271.893,703.065,271.181,703.514,270.417z M699.027,296.037
		c0.178-1.4,0.355-2.801,0.532-4.202c0.886,0.069,1.672,0.389,2.356,1.104c0.197,0.205,0.338,0.386,0.488,0.627
		C701.273,294.389,700.152,295.213,699.027,296.037z M704.94,291.717c-1.151-1.685-2.948-2.805-4.984-3.014
		c0.539-4.252,1.078-8.502,1.617-12.754c4.608,2.703,9.216,5.406,13.823,8.107C711.946,286.611,708.447,289.164,704.94,291.717z
		 M751.475,224.393c-5.662,9.652-11.323,19.303-16.984,28.955c-3.481,5.934-6.964,11.869-10.445,17.803
		c-1.9,3.24-3.657,6.637-5.729,9.77c-0.205,0.309-0.401,0.569-0.641,0.805c-1.136-0.666-2.27-1.331-3.403-1.996
		c3.896-6.643,7.793-13.285,11.689-19.928c6.614-11.273,13.226-22.547,19.841-33.82c1.261-2.15,2.521-4.301,3.783-6.45
		c0.403,0.247,0.81,0.492,1.206,0.749C752.511,221.395,752.362,222.883,751.475,224.393z"/>
	<path fill="#F2F2F2" d="M577.56,274.864c-6.409-10.775-12.817-21.549-19.227-32.322c-0.918-1.544-1.836-3.088-2.755-4.631
		c-0.693-1.168-2.314-1.176-3.039-0.037c-4.902,7.705-9.806,15.411-14.709,23.117c-3.882,2.311-7.765,4.619-11.647,6.93
		c-0.792,0.47-1.183,1.541-0.686,2.374c3.136,5.272,6.271,10.545,9.409,15.817c0.469,0.791,1.54,1.182,2.374,0.686
		c0.823-0.49,1.647-0.979,2.472-1.47c3.251,5.468,6.503,10.935,9.755,16.401c0.472,0.792,1.541,1.183,2.375,0.687
		c2.71-1.612,5.42-3.224,8.13-4.836c0.271-0.161,0.466-0.363,0.604-0.584c0.366-0.472,0.484-1.114,0.082-1.79
		c-3.086-5.189-6.173-10.378-9.26-15.566c8.283-0.573,16.565-1.146,24.848-1.719c0.345-0.024,0.631-0.135,0.872-0.293
		c0.735-0.398,1.2-1.242,0.743-2.162C577.832,275.239,577.719,275.033,577.56,274.864z M539.515,281.403
		c-0.823,0.49-1.647,0.98-2.471,1.471c-2.541-4.271-5.082-8.543-7.623-12.814c3.018-1.795,6.034-3.59,9.051-5.385
		c2.541,4.271,5.081,8.544,7.623,12.816C543.902,278.793,541.708,280.098,539.515,281.403z M556.773,295.441
		c-1.709,1.017-3.417,2.033-5.127,3.05c-2.963-4.982-5.928-9.966-8.893-14.949c1.71-1.016,3.418-2.033,5.127-3.049
		C550.845,285.475,553.809,290.458,556.773,295.441z M549.444,276.286c-2.771-4.658-5.542-9.316-8.312-13.975
		c4.288-6.741,8.578-13.482,12.868-20.225c6.007,10.1,12.015,20.199,18.021,30.3c0.446,0.748,0.891,1.496,1.336,2.245
		C565.385,275.182,557.415,275.735,549.444,276.286z"/>
	<path fill="#F2F2F2" d="M580.884,240.04c1.266-0.753,2.532-1.506,3.799-2.26c1.932-1.148,0.247-4.211-1.688-3.06
		c-1.299,0.772-2.597,1.545-3.896,2.317c-0.753-1.267-1.506-2.532-2.26-3.798c-1.149-1.933-4.211-0.247-3.06,1.688
		c0.772,1.298,1.545,2.597,2.316,3.895c-1.266,0.754-2.531,1.507-3.798,2.26c-1.933,1.15-0.247,4.211,1.688,3.061
		c1.299-0.772,2.598-1.545,3.896-2.317c0.754,1.267,1.507,2.532,2.26,3.798c1.149,1.933,4.211,0.248,3.06-1.688
		C582.429,242.637,581.657,241.338,580.884,240.04z"/>
	<path fill="#F2F2F2" d="M606.552,236.346c-1.299,0.773-2.597,1.545-3.896,2.317c-0.753-1.267-1.506-2.532-2.259-3.798
		c-1.149-1.932-4.212-0.246-3.061,1.688c0.772,1.299,1.545,2.598,2.317,3.896c-1.266,0.754-2.531,1.506-3.798,2.26
		c-1.932,1.149-0.246,4.211,1.688,3.061c1.299-0.772,2.597-1.545,3.896-2.318c0.754,1.267,1.507,2.533,2.26,3.799
		c1.148,1.932,4.212,0.246,3.06-1.688c-0.772-1.299-1.545-2.597-2.317-3.896c1.267-0.754,2.532-1.506,3.799-2.26
		C610.173,238.258,608.488,235.196,606.552,236.346z"/>
	<path fill="#F2F2F2" d="M595.211,255.257c-1.299,0.772-2.598,1.545-3.896,2.317c-0.754-1.266-1.507-2.531-2.26-3.798
		c-1.148-1.933-4.21-0.247-3.06,1.688c0.772,1.298,1.545,2.597,2.317,3.896c-1.266,0.753-2.532,1.506-3.798,2.259
		c-1.933,1.15-0.247,4.212,1.688,3.061c1.299-0.771,2.598-1.545,3.896-2.316c0.753,1.266,1.506,2.531,2.26,3.797
		c1.149,1.934,4.211,0.248,3.06-1.688c-0.772-1.299-1.545-2.597-2.317-3.896c1.266-0.753,2.531-1.507,3.799-2.26
		C598.832,257.168,597.147,254.106,595.211,255.257z"/>
	<path fill="#F2F2F2" d="M208.437,266.14c0.607-1.278,0.758-2.866,0.993-4.249c0.542-3.227-1.05-6.059-4.333-6.814
		c-0.012-0.002-0.024-0.004-0.036-0.007c1.597-13.173-5.112-26.192-17.236-31.942c0.265-1.537,0.394-3.053-0.152-4.605
		c-0.942-2.666-3.28-4.6-6.039-5.124c-2.689-0.512-5.397,0.133-7.331,2.151c-1.296,1.353-1.782,2.957-2.14,4.672
		c-13.23,1.086-24.358,10.461-27.614,23.336c-0.044-0.008-0.089-0.017-0.134-0.023c-3.453-0.572-6.068,1.465-6.735,4.816
		c-0.308,1.549-0.837,3.293-0.535,4.871c0.419,2.175,2.064,3.791,4.189,4.327c2.847,0.72,5.821,1.106,8.704,1.655
		c6.396,1.217,12.79,2.434,19.186,3.65c10.852,2.064,21.689,4.223,32.558,6.193c0.193,0.035,0.388,0.074,0.58,0.111
		c0.105,0.02,0.205,0.023,0.305,0.027c0.051,0.01,0.098,0.026,0.152,0.033C205.158,269.502,207.421,268.275,208.437,266.14z
		 M187.163,226.637c10.076,5.355,15.905,16.328,14.532,27.734c-2.394-0.457-4.804-0.855-7.19-1.31
		c-3.979-0.757-7.958-1.514-11.937-2.271C184.099,242.741,185.63,234.688,187.163,226.637z M175.486,222.315
		c0-0.001,0-0.002,0-0.003c0-0.005,0-0.01,0-0.015c0-0.004,0-0.008,0-0.012c0-0.002,0-0.003,0-0.004c0-1.033,0.17-2.227,0.611-3.189
		c0.844-1.85,2.635-2.7,4.573-2.378c1.858,0.31,3.481,1.554,3.878,3.462c0.244,1.166-0.105,2.349-0.323,3.494
		c-0.001,0.006,0.006,0.012,0.004,0.018c-0.001,0.008-0.001,0.014-0.003,0.021c-0.018,0.09-0.033,0.18-0.051,0.27
		c-0.014,0.059-0.023,0.116-0.031,0.175c-1.649,8.665-3.296,17.331-4.946,25.996c-2.975-0.565-5.829-1.132-8.804-1.698
		C172.051,239.74,173.486,231.028,175.486,222.315z M171.483,223.743c-1.526,8.022-3.053,16.045-4.578,24.068
		c-2.849-0.541-5.697-1.084-8.545-1.625c-1.248-0.238-2.496-0.475-3.743-0.713c-2.218-0.422-4.436-0.876-6.656-1.3
		C150.92,233.175,160.142,225.023,171.483,223.743z M205.777,262.739c-0.325,1.711-0.753,3.214-2.807,3.045
		c-8.02-1.525-16.038-3.052-24.057-4.577c-11.206-2.132-22.413-4.264-33.62-6.396c-0.967-0.184-1.965-0.312-2.919-0.555
		c-2.679-0.682-1.805-3.644-1.25-5.664c0.44-1.609,2.02-1.831,3.734-1.619c0.156,0.11,0.332,0.198,0.54,0.237
		c1.254,0.238,2.508,0.478,3.763,0.716c0.005,0.001,0.011,0.002,0.016,0.004c6.099,1.16,12.197,2.32,18.297,3.48
		c0.384,0.216,0.83,0.303,1.24,0.235c0.281,0.054,0.562,0.107,0.844,0.161c3.404,0.647,6.809,1.295,10.212,1.942
		c0.385,0.216,0.829,0.304,1.239,0.235c3.22,0.613,6.438,1.225,9.658,1.838c4.002,0.762,8.006,1.522,12.008,2.284
		c0.42,0.079,0.842,0.153,1.261,0.239c0.235,0.049,0.479,0.078,0.71,0.152C206.728,259.184,206.08,261.145,205.777,262.739z"/>
</g>
</svg>
