<svg width="32" height="32" viewBox="0 0 32 32" xmlns="http://www.w3.org/2000/svg"><title>checked</title><g fill="none" fill-rule="evenodd"><ellipse fill="#FFF" cx="16" cy="16" rx="13.091" ry="12.364"/><path d="M16 0C7.127 0 0 7.127 0 16c0 8.873 7.127 16 16 16 8.873 0 16-7.127 16-16 0-8.873-7.127-16-16-16zm9.236 10.982L13.6 23.055a.66.66 0 0 1-.51.218c-.217 0-.435-.073-.508-.218l-5.673-6.11-.145-.145a.786.786 0 0 1-.219-.51c0-.145.073-.363.219-.508l1.018-1.018a.703.703 0 0 1 1.018 0l.073.072 4 4.291a.352.352 0 0 0 .509 0l9.745-10.109h.073a.703.703 0 0 1 1.018 0l1.018 1.018c.291.219.291.655 0 .946z" fill="#000"/></g></svg>