<svg xmlns="http://www.w3.org/2000/svg" width="266.783" height="36.601" viewBox="0 0 266.783 36.601"><path fill="#FFF" d="M35.729 36.601h-9.315c-1.648 0-2.99-1.284-2.99-2.862v-6.367h-8.129v6.367c0 1.578-1.342 2.862-2.99 2.862H2.989C1.341 36.601 0 35.316 0 33.738V2.862C0 1.284 1.341 0 2.989 0h9.315c1.648 0 2.99 1.284 2.99 2.862V9.23h8.129V2.862c0-1.578 1.342-2.862 2.99-2.862h9.315c1.648 0 2.989 1.284 2.989 2.862v30.876c.002 1.578-1.339 2.863-2.988 2.863zm-10.674-9.23v6.367c0 .68.609 1.231 1.359 1.231h9.315c.749 0 1.358-.552 1.358-1.231V2.862c0-.679-.609-1.231-1.358-1.231h-9.315c-.75 0-1.359.552-1.359 1.231V9.23h1.964c1.982 0 3.596 1.54 3.596 3.433 0 1.893-1.613 3.433-3.596 3.433s-3.595-1.54-3.595-3.433v-1.802h-8.129v1.802c0 1.893-1.612 3.433-3.595 3.433s-3.596-1.54-3.596-3.433c0-1.893 1.613-3.433 3.596-3.433h1.964V2.862c0-.679-.609-1.231-1.359-1.231H2.989c-.749 0-1.358.552-1.358 1.231v30.876c0 .68.609 1.231 1.358 1.231h9.315c.75 0 1.359-.552 1.359-1.231v-6.367H11.7c-1.982 0-3.596-1.541-3.596-3.434s1.613-3.432 3.596-3.432 3.595 1.539 3.595 3.432v1.803h8.129v-1.803c0-1.893 1.612-3.432 3.595-3.432s3.596 1.539 3.596 3.432-1.613 3.434-3.596 3.434h-1.964zm0-1.631h1.964c1.083 0 1.965-.809 1.965-1.803 0-.993-.882-1.801-1.965-1.801s-1.964.808-1.964 1.801v1.803zM11.7 22.137c-1.083 0-1.965.808-1.965 1.801 0 .994.882 1.803 1.965 1.803h1.964v-1.803c0-.994-.881-1.801-1.964-1.801zm13.355-11.276v1.802c0 .994.881 1.802 1.964 1.802s1.965-.808 1.965-1.802-.882-1.802-1.965-1.802h-1.964zm-13.355 0c-1.083 0-1.965.809-1.965 1.802s.882 1.802 1.965 1.802 1.964-.808 1.964-1.802v-1.802H11.7z"/><g fill="#FFF"><path d="M87.711 24.493v.825c0 .656-.219 1.184-.658 1.58-.399.438-.916.657-1.554.657H74.021c-.658 0-1.185-.219-1.584-.657-.439-.396-.658-.924-.658-1.58v-2.089h-9.816c-.656 0-1.184-.219-1.581-.655-.439-.398-.658-.926-.658-1.582V13.95c0-.657.219-1.183.658-1.581.397-.438.925-.656 1.581-.656h9.816V9.774h1.492v1.939h10.173c.616 0 1.144.219 1.581.656.199.199.359.432.478.701.12.269.18.562.18.88v7.042c0 .318-.06.611-.18.879a2.29 2.29 0 0 1-.478.703 2.156 2.156 0 0 1-1.581.655H73.272v2.089c0 .179.068.357.209.537.178.139.357.208.537.208h11.457a.685.685 0 0 0 .505-.208.739.739 0 0 0 .239-.537v-.825h1.492zM61.426 13.414c-.138.179-.208.358-.208.537v2.775H71.78v-3.521h-9.816a.733.733 0 0 0-.538.209zm0 8.115a.733.733 0 0 0 .538.209h9.816v-3.521H61.218v2.775c0 .178.07.358.208.537zm22.765-7.578c0-.179-.07-.358-.208-.537a.73.73 0 0 0-.538-.208H73.272v3.521h10.919v-2.776zm-.746 7.787c.219 0 .397-.07.538-.209.138-.18.208-.359.208-.537v-2.775H73.272v3.521h10.173zM132.465 24.493v.825c0 .656-.22 1.184-.658 1.58-.399.438-.918.657-1.556.657h-11.477c-.66 0-1.187-.219-1.584-.657-.439-.396-.66-.924-.66-1.58v-2.089h-9.814c-.658 0-1.185-.219-1.583-.655-.438-.398-.656-.926-.656-1.582V13.95c0-.657.218-1.183.656-1.581.397-.438.925-.656 1.583-.656h9.814V9.774h1.492v1.939h10.175c.616 0 1.143.219 1.581.656.198.199.357.432.477.701.119.269.179.562.179.88v7.042c0 .318-.06.611-.179.879-.12.27-.279.504-.477.703a2.157 2.157 0 0 1-1.581.655h-10.175v2.089c0 .179.07.357.209.537.18.139.359.208.537.208h11.457a.691.691 0 0 0 .507-.208.742.742 0 0 0 .239-.537v-.825h1.494zM106.18 13.414a.868.868 0 0 0-.208.537v2.775h10.56v-3.521h-9.814a.726.726 0 0 0-.538.209zm0 8.115a.726.726 0 0 0 .538.209h9.814v-3.521h-10.56v2.775a.87.87 0 0 0 .208.537zm22.763-7.578a.868.868 0 0 0-.208-.537.724.724 0 0 0-.536-.208h-10.175v3.521h10.919v-2.776zm-.744 7.787c.218 0 .397-.07.536-.209.14-.18.208-.359.208-.537v-2.775h-10.919v3.521h10.175zM152.246 10.52l-.717 1.253h5.281V9.774h1.491v1.999h7.876v1.492h-7.876v2.685h8.921v1.492h-8.921v2.087h5.677c.654 0 1.18.221 1.576.657.436.398.654.925.654 1.581v2.774c0 .339-.061.638-.18.896a2.367 2.367 0 0 1-.507.746 3.15 3.15 0 0 1-.776.477c-.318.1-.617.14-.895.119l-2.148-.088.09-1.463 2.178.09c.06.02.149.01.27-.03.059-.021.148-.069.268-.149.079-.121.129-.211.148-.271.041-.039.061-.14.061-.3v-2.795c0-.18-.07-.36-.209-.541a.718.718 0 0 0-.533-.21h-5.673v6.504h-1.491v-6.504h-5.698a.73.73 0 0 0-.538.209c-.139.179-.208.358-.208.537v5.012h-1.492v-5.012c0-.656.218-1.183.657-1.581.396-.437.924-.657 1.581-.657h5.698v-2.087h-8.98V15.95h8.98v-2.685h-6.146l-.984 1.768-1.284-.746 2.567-4.483 1.282.716zm24.464-.746v15.603c0 .657-.244 1.189-.732 1.598a2.164 2.164 0 0 1-1.654.521l-4.715-.358.12-1.491 4.683.357c.26 0 .458-.068.598-.208a.73.73 0 0 0 .209-.538V9.774h1.491zm-5.46 1.641v11.427h-1.492V11.415h1.492zM200.996 10.848l-3.103 2.983v13.724h-1.492V15.264l-3.042 2.923-1.045-1.074 7.668-7.339 1.014 1.074zm5.042-.358l-.925 1.76H222v1.492h-11.248v3.64h10.413v1.492h-10.413v3.431h10.413v1.491h-10.413v3.76h-1.492V13.742h-4.893l-2.983 5.787-1.342-.655 4.684-9.041 1.312.657zM237.664 27.496v-14.53c0-.597.189-1.104.566-1.521a2.375 2.375 0 0 1 1.462-.716l11.606-.924.119 1.491-11.576.925a.598.598 0 0 0-.508.239c-.119.119-.178.289-.178.507v2.059h9.904c.656 0 1.184.219 1.582.656.438.438.656.965.656 1.581V19.8c0 .617-.219 1.145-.656 1.581a2.354 2.354 0 0 1-.701.478 2.151 2.151 0 0 1-.881.179h-9.904v5.46h-1.491zm11.396-6.951c.239 0 .418-.08.537-.238.139-.12.209-.289.209-.508v-2.537a.73.73 0 0 0-.209-.537.729.729 0 0 0-.537-.209h-9.904v4.029h9.904zm17.723-3.103h-3.371v10.083h-1.492V17.442h-7.727v10.083h-1.492V12.788c0-.617.202-1.124.608-1.522.405-.417.919-.646 1.539-.686l11.009-.566.09 1.491-11.039.538a.912.912 0 0 0-.507.239c-.14.179-.208.348-.208.507v3.162h12.59v1.491z"/></g></svg>