<svg xmlns="http://www.w3.org/2000/svg" width="160" height="47" viewBox="0 0 160 47"><g><path d="M19.334 16.701c-1.124-1.168-2.21-1.92-3.259-2.364-.961-.458-2.217-.661-3.77-.661-3.237 0-5.935 1.115-8.093 3.317C2.069 19.181.997 21.945.997 25.27c0 2.957.924 5.429 2.771 7.409 1.848 1.937 4.19 2.906 7.028 2.906 2.276 0 4.449-.79 6.519-2.371l-.354 2.859c-.281 2.336-.946 4.04-1.996 5.112-1.049 1.071-2.579 1.607-4.589 1.607-1.863 0-3.237-.528-4.125-1.423C5.366 40.477 4.863 39 4.745 37H0c0 2 .207 3.311.621 4.316.414 1.094 1.138 2.109 2.173 2.967 2.025 1.715 4.671 2.592 7.938 2.592 3.163 0 5.735-.877 7.716-2.65a8.922 8.922 0 0 0 2.306-3.343c.252-.636.477-1.416.677-2.348.199-.932.38-2.131.543-3.388L24.544 14h-4.9l-.31 2.701zm-2.395 12.723c-1.301 1.39-2.963 2.084-4.988 2.084-1.818 0-3.282-.569-4.39-1.707-1.094-1.183-1.641-2.705-1.641-4.567 0-2.128.636-3.896 1.907-5.299 1.286-1.419 2.897-2.129 4.834-2.129 1.862 0 3.37.584 4.523 1.752 1.153 1.153 1.729 2.676 1.729 4.567 0 2.128-.658 3.895-1.974 5.299zM38.292 13.526c-3.37 0-6.179 1.079-8.425 3.237-2.232 2.143-3.348 4.833-3.348 8.07 0 3.163 1.079 5.779 3.237 7.849 2.144 2.056 4.908 3.083 8.292 3.083 3.238 0 5.957-1.087 8.16-3.26 2.218-2.173 3.326-4.856 3.326-8.049 0-3.237-1.05-5.861-3.148-7.871-2.085-2.039-4.782-3.059-8.094-3.059zm4.413 16.053c-1.242 1.404-2.823 2.106-4.745 2.106-1.921 0-3.488-.644-4.7-1.929-1.212-1.257-1.818-2.92-1.818-4.989 0-2.055.643-3.762 1.929-5.122 1.286-1.345 2.912-2.018 4.878-2.018 1.892 0 3.422.606 4.59 1.818 1.167 1.168 1.752 2.756 1.752 4.767-.001 2.189-.63 3.977-1.886 5.367zM63.863 13.526c-3.37 0-6.179 1.079-8.425 3.237-2.232 2.143-3.348 4.833-3.348 8.07 0 3.163 1.079 5.779 3.237 7.849 2.143 2.056 4.907 3.083 8.292 3.083 3.237 0 5.957-1.087 8.159-3.26 2.217-2.173 3.326-4.856 3.326-8.049 0-3.237-1.049-5.861-3.148-7.871-2.084-2.039-4.782-3.059-8.093-3.059zm4.412 16.053c-1.242 1.404-2.823 2.106-4.745 2.106s-3.489-.644-4.701-1.929c-1.212-1.257-1.818-2.92-1.818-4.989 0-2.055.643-3.762 1.929-5.122 1.286-1.345 2.912-2.018 4.878-2.018 1.892 0 3.422.606 4.59 1.818 1.168 1.168 1.752 2.756 1.752 4.767 0 2.189-.628 3.977-1.885 5.367zM109.964 1.553c-.71 0-1.323.259-1.841.776-.518.518-.775 1.131-.775 1.841 0 .739.266 1.382.798 1.929.532.532 1.16.798 1.885.798a2.57 2.57 0 0 0 1.885-.776c.517-.517.775-1.124.775-1.818 0-.754-.273-1.397-.82-1.929-.532-.547-1.169-.821-1.907-.821zM102.292 47h4.9l4.036-33h-4.901zM124.832 13.526c-3.37 0-6.179 1.079-8.426 3.237-2.231 2.143-3.348 4.833-3.348 8.07 0 3.163 1.079 5.779 3.237 7.849 2.144 2.056 4.907 3.083 8.292 3.083 3.237 0 5.957-1.087 8.159-3.26 2.218-2.173 3.326-4.856 3.326-8.049 0-3.237-1.05-5.861-3.148-7.871-2.083-2.039-4.78-3.059-8.092-3.059zm4.412 16.053c-1.241 1.404-2.822 2.106-4.744 2.106-1.923 0-3.489-.644-4.701-1.929-1.212-1.257-1.818-2.92-1.818-4.989 0-2.055.644-3.762 1.93-5.122 1.285-1.345 2.912-2.018 4.878-2.018 1.892 0 3.421.606 4.589 1.818 1.168 1.168 1.752 2.756 1.752 4.767-.001 2.189-.629 3.977-1.886 5.367zM98.015 0L95.93 17.196c-1.227-1.364-2.402-2.363-3.525-2.933-1.079-.554-2.409-.849-3.991-.849-3.09 0-5.654 1.093-7.693 3.296-2.04 2.203-3.06 4.965-3.06 8.292 0 3.117.931 5.663 2.793 7.642 1.863 1.963 4.258 2.944 7.185 2.944 1.285 0 2.364-.18 3.236-.54.888-.39 1.937-1.179 3.148-2.272L93.757 35h4.878l4.278-35h-4.898zm-4.79 29.157c-1.286 1.53-2.86 2.294-4.723 2.294-1.789 0-3.223-.562-4.302-1.686-1.079-1.14-1.618-2.646-1.618-4.52 0-2.218.628-4.054 1.885-5.508 1.256-1.454 2.846-2.18 4.767-2.18 1.774 0 3.208.555 4.302 1.664s1.641 2.562 1.641 4.361c-.001 2.219-.652 4.077-1.952 5.575zM144.789 29.168c-1.027-1.183-1.592-2.783-1.592-4.507 0-1.724.565-3.324 1.593-4.505 1.096-1.259 2.638-1.953 4.342-1.953l9.931-.02-.1-.228c-1.79-3.674-5.174-4.33-5.174-4.33-1.628-.226-7.595-.062-7.595-.062s.519-3.073 1.248-8.512c-.193-4.349-3.483-4.986-4.617-5.046L137.668 35H150.85c.999 0 2.479-1.051 3.332-1.61a12.55 12.55 0 0 0 2.609-2.282l-7.666.01c-1.703-.011-3.243-.69-4.336-1.95z"/><path d="M146.714 27.506c.608.701 1.438 1.073 2.401 1.085l9.562.021c.297-.567.76-1.612.977-2.612h-13.732c.161 1 .429 1.086.792 1.506zM159.874 21.013l-10.742-.119c-.97 0-1.806.302-2.419 1.006-.26.299-.471.896-.629 1.283-.056.206-.1-.182-.132.818h13.965c.061-1.001.171-2.189-.043-2.988z"/></g></svg>
