<svg width="148px" height="148px" viewBox="0 0 148 148" version="1.1" xmlns="http://www.w3.org/2000/svg" xmlns:xlink="http://www.w3.org/1999/xlink">
    <title>transaction</title>
    <g id="icons" stroke="none" stroke-width="1" fill="none" fill-rule="evenodd">
        <g id="Group-7" fill="#fcd406">
            <path d="M74,0 C114.804,0 148,33.196 148,74 C148,114.804 114.804,148 74,148 C33.196,148 0,114.804 0,74 C0,33.196 33.196,0 74,0 Z M74,10 C38.71,10 10,38.71 10,74 C10,109.29 38.71,138 74,138 C109.29,138 138,109.29 138,74 C138,38.71 109.29,10 74,10 Z M104,79 C105.844,79 107.538,80.015 108.408,81.641 C109.278,83.267 109.183,85.239 108.16,86.773 L98.16,101.773 C97.197,103.219 95.611,104.001 93.996,104.001 C93.042,104.001 92.079,103.729 91.227,103.16 C88.929,101.629 88.308,98.524 89.84,96.227 L94.657,89 L40,89 C37.239,89 35,86.762 35,84 C35,81.238 37.239,79 40,79 Z M47.84,45.227 C49.372,42.928 52.476,42.308 54.773,43.84 C57.071,45.372 57.692,48.476 56.16,50.773 L51.343,58 L106,58 C108.761,58 111,60.239 111,63 C111,65.761 108.761,68 106,68 L42,68 C40.156,68 38.462,66.985 37.592,65.359 C36.722,63.733 36.817,61.761 37.84,60.227 Z" id="Combined-Shape"></path>
        </g>
    </g>
</svg>
