<svg width="19" height="30" viewBox="0 0 19 30" fill="none" xmlns="http://www.w3.org/2000/svg">
  <path fill-rule="evenodd" clip-rule="evenodd"
    d="M6.05661 24.2026C5.18356 23.22 4.70279 21.8908 4.70279 20.4593C4.70279 19.0269 5.18391 17.6979 6.05755 16.7172C6.98931 15.6716 8.3007 15.0956 9.75028 15.0956L18.1964 15.0791L18.1113 14.8898C16.5893 11.838 13.7114 11.2933 13.7114 11.2933C12.3269 11.1057 7.25208 11.2425 7.25208 11.2425C7.25208 11.2425 7.69336 8.68986 8.3136 4.17249C8.14881 0.56075 5.35093 0.05002 4.38658 0L0 29.0844H0.279882H11.2111C12.0607 29.0844 13.3192 28.1923 14.0453 27.7277C14.8394 27.219 15.6264 26.5513 16.2642 25.8229L9.74418 25.8263C8.29613 25.8183 6.9865 25.2489 6.05661 24.2026Z"
    fill="#FCD406" />
  <path fill-rule="evenodd" clip-rule="evenodd"
    d="M7.69385 22.8011C8.21177 23.3841 8.91746 23.7035 9.73601 23.7131L17.8688 23.7154C18.1213 23.2442 18.5151 22.4457 18.6997 21.53H7.02075C7.15706 22.2167 7.38455 22.453 7.69385 22.8011Z"
    fill="#FCD406" />
  <mask id="mask0_719_22709" style="mask-type:luminance" maskUnits="userSpaceOnUse" x="7" y="17" width="12" height="3">
    <path fill-rule="evenodd" clip-rule="evenodd" d="M18.9934 19.5841V17.2485L7.04614 17.2485V19.5841H18.9934Z"
      fill="white" />
  </mask>
  <g mask="url(#mask0_719_22709)">
    <path fill-rule="evenodd" clip-rule="evenodd"
      d="M18.886 17.266L9.75014 17.2485C8.92562 17.2485 8.21408 17.5397 7.69287 18.1246C7.47171 18.373 7.29239 18.7265 7.15784 19.0474C7.11072 19.2179 7.07298 19.2407 7.04614 19.5841H18.9226C18.9746 19.0118 19.0683 17.9302 18.886 17.266Z"
      fill="#FCD406" />
  </g>
</svg>
