<?xml version="1.0" encoding="utf-8"?>
<!-- Generator: Adobe Illustrator 21.0.0, SVG Export Plug-In . SVG Version: 6.00 Build 0)  -->
<svg version="1.1" id="Layer_1" xmlns="http://www.w3.org/2000/svg" xmlns:xlink="http://www.w3.org/1999/xlink" x="0px" y="0px"
	 viewBox="0 0 313 32" enable-background="new 0 0 313 32" xml:space="preserve">
<g>
	<g>
		<polygon fill="#B92025" points="221.4,6.2 204.1,28.2 208.2,28.2 225.4,6.2 		"/>
	</g>
	<g>
		<g>
			<g>
				<path fill="#B92025" d="M302.4,17.2h-28.9c-0.4,0-0.7-0.3-0.8-0.7c-0.1-0.4,0-1,0-1.7c0-0.3,0-0.5,0-0.7
					c0-6.2,4.1-10.4,10.3-10.4c4.7,0,8.3,2.4,10,6.5c1.1-1.5,2.7-2.3,4.4-2.3c3.4,0,5.7,2.3,5.7,5.6v2.9
					C303.2,16.9,302.8,17.2,302.4,17.2z M274.2,15.7h27.4v-2.1c0-2.8-2.1-4.1-4.2-4.1c-1.7,0-3.3,1.2-3.9,3
					c-0.1,0.3-0.4,0.5-0.8,0.5c-0.3,0-0.6-0.2-0.7-0.6C291,8,287.6,5.4,283,5.4c-5.3,0-8.8,3.5-8.8,8.8c0,0.2,0,0.4,0,0.7
					C274.2,15.2,274.2,15.4,274.2,15.7z"/>
			</g>
		</g>
		<g>
			<g>
				<path fill="#ffffff" d="M300.2,23.4c-2.1,0-3.9-1.5-4.6-3.5c-1.1,4.4-4.5,7.7-9.8,7.7c-5.4,0-9.5-3.5-9.5-9.6
					c0-0.6-0.1-1.8,0-2.2h28.9c0,1,0,2.1,0,2.9C305.2,21.6,303,23.4,300.2,23.4z"/>
			</g>
		</g>
	</g>
	<g>
		<path fill="#ffffff" d="M188.3,12c4.1,0,7,0.6,9.1,1.4V10c-1.8-0.6-4.6-1.2-9-1.2c-5.7,0-8.4,1.1-9.7,2.5
			c-1.2,1.2-1.9,2.9-1.9,5.1s0.6,3.8,1.9,5.1c1.4,1.4,4,2.5,9.5,2.5c4.4,0,7.2-0.6,8.8-2.3c0.9-0.9,1.4-2.2,1.4-4.5v-1.9h-12.4v2.8
			h8.7c0,0.3,0,1.1-0.5,1.6c-0.9,0.9-3.1,1.2-6.1,1.2c-3.6,0-5.5-0.7-6.4-1.5c-0.6-0.7-1-1.6-1-2.9c0-1.3,0.4-2.3,1.1-3
			C182.7,12.7,184.6,12,188.3,12C188.3,12,184.6,12,188.3,12L188.3,12L188.3,12z"/>
	</g>
	<g>
		<path fill="#ffffff" d="M253.7,9.4h-4.6l-7.4,11.1l-7.4-11.1h-4.8l9.7,14h4.9l0,0L253.7,9.4L253.7,9.4z"/>
	</g>
	<g>
		<path fill="#ffffff" d="M224.7,11.4c-1.3-1.3-3.9-2.5-9.5-2.5c-5.4,0-8.1,1.2-9.5,2.5c-1.2,1.2-1.9,2.7-1.9,5s0.7,3.8,1.9,5
			c1.3,1.3,4,2.5,9.5,2.5c5.5,0,8.1-1.2,9.5-2.5c1.2-1.2,1.9-2.7,1.9-5C226.5,14.1,225.9,12.6,224.7,11.4z M215.2,20.9
			c-3.6,0-5.5-0.7-6.3-1.5c-0.6-0.6-1.1-1.4-1.1-2.9s0.4-2.3,1-3c0.8-0.8,2.7-1.5,6.3-1.5s5.4,0.7,6.3,1.5c0.7,0.7,1.1,1.4,1.1,3
			s-0.4,2.3-1,3C220.6,20.3,218.8,20.9,215.2,20.9z"/>
	</g>
	<g>
		<path fill="#ffffff" d="M12.9,19.2v5.5H9.1V8.5h6.4c1.2,0,2.3,0.2,3.3,0.7c0.9,0.5,1.7,1.1,2.2,1.9s0.8,1.8,0.8,2.9
			c0,1.6-0.6,2.8-1.7,3.8s-2.7,1.4-4.6,1.4H12.9z M12.9,16.2h2.5c0.8,0,1.3-0.2,1.7-0.6c0.4-0.4,0.6-0.9,0.6-1.6
			c0-0.8-0.2-1.4-0.6-1.8c-0.4-0.5-1-0.7-1.7-0.7h-2.6V16.2z"/>
		<path fill="#ffffff" d="M38.6,16.9c0,1.6-0.3,3-0.9,4.2c-0.6,1.2-1.4,2.1-2.5,2.8c-1.1,0.7-2.3,1-3.7,1s-2.6-0.3-3.7-0.9
			c-1.1-0.6-1.9-1.5-2.5-2.7c-0.6-1.2-0.9-2.5-0.9-4v-0.9c0-1.6,0.3-3,0.9-4.2c0.6-1.2,1.4-2.1,2.5-2.8c1.1-0.7,2.3-1,3.7-1
			c1.4,0,2.6,0.3,3.7,1c1.1,0.7,1.9,1.6,2.5,2.8c0.6,1.2,0.9,2.6,0.9,4.1V16.9z M34.7,16.2c0-1.6-0.3-2.8-0.8-3.6
			c-0.5-0.8-1.3-1.2-2.3-1.2c-1.9,0-3,1.5-3.1,4.4l0,1.2c0,1.6,0.3,2.8,0.8,3.6c0.5,0.8,1.3,1.3,2.3,1.3c1,0,1.7-0.4,2.3-1.3
			s0.8-2,0.8-3.6V16.2z"/>
		<path fill="#ffffff" d="M54.2,18.6l1.8-10.1h3.9l-3.4,16.1h-4l-2.2-9.2l-2.1,9.2h-4L40.8,8.5h3.9l1.8,10.1l2.2-10.1H52L54.2,18.6z
			"/>
		<path fill="#ffffff" d="M72.6,17.8h-6.1v3.9h7.2v3H62.6V8.5h11.1v3h-7.2v3.4h6.1V17.8z"/>
		<path fill="#ffffff" d="M82.4,18.9h-2.1v5.7h-3.9V8.5h6.3c1.9,0,3.4,0.4,4.5,1.3c1.1,0.8,1.6,2,1.6,3.6c0,1.1-0.2,2-0.7,2.8
			c-0.5,0.7-1.2,1.3-2.1,1.8l3.4,6.5v0.2h-4.2L82.4,18.9z M80.3,15.9h2.5c0.7,0,1.3-0.2,1.7-0.6s0.6-0.9,0.6-1.6
			c0-0.7-0.2-1.2-0.6-1.6c-0.4-0.4-0.9-0.6-1.7-0.6h-2.5V15.9z"/>
		<path fill="#ffffff" d="M102.4,17.8h-6.1v3.9h7.2v3H92.4V8.5h11.1v3h-7.2v3.4h6.1V17.8z"/>
		<path fill="#ffffff" d="M106.2,24.6V8.5h5.2c1.4,0,2.7,0.3,3.8,1c1.1,0.6,2,1.6,2.7,2.7s1,2.5,1,4v0.7c0,1.5-0.3,2.8-0.9,4
			c-0.6,1.2-1.5,2.1-2.6,2.7c-1.1,0.7-2.4,1-3.8,1H106.2z M110.1,11.5v10.1h1.4c1.1,0,2-0.4,2.6-1.2c0.6-0.8,0.9-2,0.9-3.5v-0.7
			c0-1.6-0.3-2.7-0.9-3.5c-0.6-0.8-1.5-1.2-2.6-1.2H110.1z"/>
		<path fill="#ffffff" d="M128.8,24.6V8.5h5.8c2.1,0,3.7,0.4,4.7,1.1c1.1,0.8,1.6,1.9,1.6,3.3c0,0.8-0.2,1.5-0.6,2.1s-0.9,1-1.7,1.3
			c0.8,0.2,1.5,0.6,1.9,1.2s0.7,1.3,0.7,2.2c0,1.6-0.5,2.8-1.5,3.6c-1,0.8-2.5,1.2-4.4,1.2H128.8z M132.6,15.2h2
			c0.8,0,1.5-0.2,1.8-0.5s0.5-0.8,0.5-1.3c0-0.7-0.2-1.2-0.6-1.5c-0.4-0.3-1-0.5-1.9-0.5h-1.9V15.2z M132.6,17.8v3.9h2.5
			c0.7,0,1.2-0.2,1.6-0.5s0.6-0.8,0.6-1.4c0-1.3-0.7-2-2-2H132.6z"/>
		<path fill="#ffffff" d="M149.8,15.5l3-7h4.2l-5.2,10.3v5.8h-3.9v-5.8l-5.2-10.3h4.2L149.8,15.5z"/>
	</g>
</g>
</svg>
