<svg xmlns="http://www.w3.org/2000/svg" viewBox="0 0 91.4 32" enable-background="new 0 0 91.4 32"><style type="text/css">.st0{fill:#C1C1C1;} .st1{fill:#060606;} .st2{fill:#FFFFFF;}</style><g id="XMLID_899_"><path id="XMLID_954_" class="st0" d="M2.6.3l86.4.2c1.2 0 2.3-.2 2.3 2.4l-.1 28.4h-90.8v-28.5c0-1.3.1-2.5 2.2-2.5z"/><path id="XMLID_951_" class="st1" d="M89.7 0h-88c-.9 0-1.7.8-1.7 1.7v29.9c0 .2.2.4.4.4h90.6c.2 0 .4-.2.4-.4v-29.9c0-.9-.7-1.7-1.7-1.7zm1 22.4h-62.9c-2.3 4.2-6.7 7-11.8 7-5.1 0-9.5-2.8-11.8-7h-3.4v-20.7c0-.5.4-.9.9-.9h88c.5 0 .9.4.9.9.1 0 .1 12 .1 20.7z"/><path id="XMLID_950_" class="st2" d="M26.3 14.9c0 5.7-4.6 10.4-10.4 10.4-5.7 0-10.4-4.6-10.4-10.4 0-5.7 4.6-10.4 10.4-10.4 5.7 0 10.4 4.6 10.4 10.4z"/><path id="XMLID_945_" class="st1" d="M24.4 6.4c2.3 2.3 3.5 5.1 3.5 8.5 0 3.3-1.1 6.1-3.4 8.4-2.4 2.4-5.2 3.5-8.5 3.5-3.2 0-6-1.2-8.4-3.5-2.4-2.4-3.6-5.2-3.6-8.4 0-3.3 1.2-6.1 3.5-8.5 2.3-2.3 5.1-3.4 8.4-3.4 3.3 0 6.2 1.1 8.5 3.4zm-15.3 1.6c-1.9 2-2.9 4.3-2.9 6.9s1 4.9 2.9 6.9c1.9 1.9 4.2 2.9 6.9 2.9s5-1 6.9-2.9c1.9-1.8 2.8-4.1 2.8-6.8s-1-5-2.8-6.9c-1.9-1.9-4.2-2.8-6.9-2.8-2.8-.2-5.1.8-6.9 2.7zm5.1 5.7c-.3-.6-.7-1-1.3-1-1 0-1.6.7-1.6 2.1 0 1.4.5 2.1 1.6 2.1.7 0 1.2-.3 1.5-1l1.5.8c-.7 1.2-1.7 1.8-3.1 1.8-1.1 0-1.9-.3-2.6-1-.6-.7-1-1.6-1-2.7s.3-2 1-2.7c.7-.7 1.5-1 2.5-1 1.5 0 2.5.6 3.2 1.7l-1.7.9zm6.9 0c-.3-.6-.7-1-1.3-1-1.1 0-1.6.7-1.6 2.1 0 1.4.5 2.1 1.6 2.1.7 0 1.2-.3 1.5-1l1.5.8c-.8 1.3-1.8 1.9-3.2 1.9-1.1 0-1.9-.3-2.6-1-.6-.7-1-1.6-1-2.7s.3-2 1-2.7c.7-.7 1.5-1 2.5-1 1.5 0 2.5.6 3.1 1.7l-1.5.8z"/><path id="XMLID_941_" class="st2" d="M36.6 25c.2 0 .5 0 .7.1.2 0 .4.1.5.2.1.1.3.2.3.4.1.2.1.4.1.6 0 .3-.1.5-.2.6-.1.2-.3.3-.5.4.3.1.5.2.7.5.2.2.2.5.2.8 0 .3-.1.5-.1.7-.1.2-.2.3-.4.5l-.6.3c-.1-.1-.4-.1-.6-.1h-2.5v-5h2.4zm-.1 2c.2 0 .4 0 .5-.1.1-.1.2-.2.2-.5 0-.1 0-.2-.1-.3 0-.1-.1-.1-.2-.2-.1 0-.2-.1-.2-.1h-1.3v1.2h1.1zm.1 2.1h.3l.3-.1.2-.2.1-.3c0-.3-.1-.4-.2-.6-.1-.1-.3-.2-.6-.2h-1.2v1.4h1.1z"/><path id="XMLID_940_" class="st2" d="M38.7 25h1.2l1.2 1.9 1.2-1.9h1.2l-1.8 3.1v1.9h-1.2v-2l-1.8-3z"/><path id="XMLID_939_" class="st2" d="M55.2 25l2.2 3.3v-3.3h1v5h-1.1l-2.1-3.4v3.4h-1.1v-5h1.1z"/><path id="XMLID_938_" class="st2" d="M62.6 26.3l-.2-.3-.3-.2-.4-.1c-.2 0-.5 0-.6.1-.2.1-.3.2-.4.4-.1.2-.2.3-.2.6l-.1.6c0 .2 0 .4.1.6.1.2.1.4.2.5.1.2.2.3.4.4.2.1.4.1.6.1.3 0 .6-.1.8-.3.2-.2.3-.5.3-.8h1.1c0 .3-.1.6-.2.9-.1.3-.3.5-.5.7-.2.2-.4.3-.7.4s-.5.1-.9.1-.7-.1-1-.2c-.3-.1-.6-.3-.8-.6-.2-.2-.4-.5-.5-.8-.1-.3-.2-.7-.2-1 0-.4.1-.7.2-1 .1-.3.3-.6.5-.8.2-.2.5-.4.8-.6.3-.1.7-.2 1-.2.3 0 .5 0 .8.1.2.1.5.2.7.4.2.2.4.3.5.6.1.2.2.5.2.8h-1.1c0-.2 0-.3-.1-.4z"/><path id="XMLID_937_" class="st2" d="M74.9 25l2.1 3.3h.1v-3.3h1v5h-1.1l-2.1-3.4v3.4h-1.1v-5h1.1z"/><path id="XMLID_934_" class="st2" d="M81.2 25c.3 0 .6.1.9.2.3.1.5.3.7.5.2.2.4.5.5.8.1.3.2.7.2 1.1 0 .4 0 .7-.1 1-.1.3-.2.6-.4.8-.2.2-.4.4-.7.5-.3.1-.6.2-1 .2h-2.2v-5h2.1v-.1zm0 4.1c.2 0 .3 0 .5-.1s.3-.1.4-.3c.1-.1.2-.3.3-.5.1-.2.1-.4.1-.7 0-.3 0-.5-.1-.7 0-.2-.1-.4-.2-.5-.1-.1-.3-.3-.4-.3-.2-.1-.4-.1-.7-.1h-.8v3.2h.9z"/><path id="XMLID_933_" class="st2" d="M66.9 11.4c0 4.2-3.4 7.6-7.6 7.6-4.2 0-7.6-3.4-7.6-7.6 0-4.2 3.4-7.6 7.6-7.6 4.2 0 7.6 3.4 7.6 7.6z"/><path id="XMLID_913_" class="st1" d="M59.3 2.6c2.5 0 4.6.9 6.3 2.6 1.7 1.7 2.6 3.8 2.6 6.3s-.8 4.5-2.5 6.2c-1.8 1.8-3.9 2.6-6.3 2.6s-4.5-.9-6.2-2.6c-1.7-1.7-2.6-3.8-2.6-6.2 0-2.4.9-4.5 2.6-6.3 1.6-1.8 3.6-2.6 6.1-2.6zm-6.8 6.4c-.3.7-.4 1.5-.4 2.4 0 2 .7 3.7 2.1 5.1 1.4 1.4 3.1 2.1 5.1 2.1 2 0 3.7-.7 5.2-2.2.5-.5.9-1 1.2-1.5l-3.3-1.5c-.2 1.1-1.2 1.9-2.4 2v1.4h-1v-1.4c-1 0-1.9-.4-2.7-1.1l1.2-1.2c.6.6 1.2.8 2 .8.5 0 1.1-.2 1.1-.9 0-.2-.1-.4-.2-.5l-.8-.4-1-.5c-.5-.2-1-.4-1.4-.6l-4.7-2zm6.8-4.8c-2 0-3.7.7-5.1 2.1-.4.4-.7.8-1 1.2l3.4 1.5c.3-.9 1.2-1.5 2.3-1.6v-1.3h1v1.4c.7 0 1.5.2 2.2.8l-1.1 1.1c-.4-.3-1-.5-1.5-.5-.4 0-1.1.1-1.1.7 0 .1 0 .2.1.2l1.1.5.8.3c.5.2 1 .4 1.4.6l4.5 2c.1-.6.2-1.2.2-1.9 0-2-.7-3.7-2.1-5.1-1.4-1.3-3.1-2-5.1-2z"/><path id="XMLID_912_" class="st2" d="M87.4 11.4c0 4.5-3.6 8.1-8.1 8.1s-8.1-3.6-8.1-8.1 3.6-8.1 8.1-8.1c4.4 0 8.1 3.6 8.1 8.1z"/><path id="XMLID_909_" class="st1" d="M79.2 2.6c-2.4 0-4.5.9-6.2 2.6-1.7 1.8-2.6 3.9-2.6 6.3s.9 4.5 2.6 6.2c1.7 1.7 3.8 2.6 6.2 2.6 2.4 0 4.5-.9 6.3-2.6 1.7-1.7 2.5-3.7 2.5-6.2s-.9-4.6-2.6-6.3c-1.7-1.8-3.8-2.6-6.2-2.6zm0 1.6c2 0 3.7.7 5.1 2.1 1.4 1.4 2.1 3.1 2.1 5.1 0 2-.7 3.7-2.1 5.1-1.5 1.4-3.2 2.2-5.2 2.2s-3.7-.7-5.1-2.1c-1.4-1.4-2.1-3.1-2.1-5.1 0-2 .7-3.7 2.2-5.1 1.4-1.5 3.1-2.2 5.1-2.2z"/><path id="XMLID_906_" class="st1" d="M82.5 9.3h-6.4v1.5h6.4v-1.5zm0 2.9h-6.4v1.5h6.4v-1.5z"/><path id="XMLID_905_" class="st2" d="M39.4 3.4c4.5 0 8.2 3.7 8.2 8.2 0 4.5-3.7 8.2-8.2 8.2-4.5 0-8.2-3.7-8.2-8.2.1-4.5 3.7-8.2 8.2-8.2z"/><path id="XMLID_904_" class="st1" d="M41.8 9.2c0-.3-.3-.6-.6-.6h-3.6c-.3 0-.6.3-.6.6v3.6h1v4.3h2.7v-4.3h1v-3.6h.1z"/><path id="XMLID_903_" class="st1" d="M39.4 5.7c.7 0 1.2.6 1.2 1.2s-.6 1.2-1.2 1.2c-.7 0-1.2-.6-1.2-1.2s.5-1.2 1.2-1.2z"/><path id="XMLID_900_" class="st1" d="M39.4 2.6c-2.4 0-4.5.9-6.2 2.6-1.7 1.8-2.6 3.9-2.6 6.3s.9 4.5 2.6 6.2c1.7 1.7 3.8 2.6 6.2 2.6 2.4 0 4.5-.9 6.3-2.6 1.7-1.7 2.5-3.7 2.5-6.2s-.9-4.6-2.6-6.3c-1.6-1.8-3.7-2.6-6.2-2.6zm0 1.6c2 0 3.7.7 5.1 2.1 1.4 1.4 2.1 3.1 2.1 5.1 0 2-.7 3.7-2.1 5.1-1.5 1.4-3.2 2.2-5.2 2.2s-3.7-.7-5.1-2.1c-1.4-1.4-2.1-3.1-2.1-5.1 0-2 .7-3.7 2.2-5.1 1.4-1.5 3.1-2.2 5.1-2.2z"/></g></svg>