<?xml version="1.0" encoding="UTF-8"?>
<svg width="40px" height="40px" viewBox="0 0 40 40" version="1.1" xmlns="http://www.w3.org/2000/svg" xmlns:xlink="http://www.w3.org/1999/xlink">
    <title>checked</title>
    <g id="icons" stroke="none" stroke-width="1" fill="none" fill-rule="evenodd">
        <g id="icon" transform="translate(-65.000000, -224.000000)">
            <g id="checked" transform="translate(65.000000, 224.000000)">
                <circle id="Oval" fill="#FFFFFF" cx="20" cy="20" r="20"></circle>
                <path d="M19.99875,0 C31.028125,0 40,8.971875 40,20 C40,31.028125 31.028125,40 19.99875,40 C8.97125,40 0,31.028125 0,20 C0,8.971875 8.97125,0 19.99875,0 Z M19.99875,2.5 C10.350625,2.5 2.5,10.350625 2.5,20 C2.5,29.649375 10.350625,37.5 19.99875,37.5 C29.64875,37.5 37.5,29.649375 37.5,20 C37.5,10.350625 29.64875,2.5 19.99875,2.5 Z M28.765625,11.30375 C29.22875,10.79 30.019375,10.751875 30.530625,11.215 C31.0425,11.678125 31.0825,12.46875 30.61875,12.98125 L16.1475,28.978125 C15.904375,29.265 15.545625,29.43125 15.175625,29.43125 C15.144375,29.43125 15.11375,29.41375 15.081875,29.41125 C15.035625,29.416875 14.99,29.435625 14.944375,29.435625 C14.539375,29.435625 14.1575,29.239375 13.9275,28.904375 L8.8975,23.345625 C8.43375,22.83375 8.474375,22.043125 8.985625,21.58 C9.496875,21.118125 10.288125,21.15625 10.750625,21.66875 L15.069375,26.441875 Z" id="Combined-Shape" fill="#D50000"></path>
            </g>
        </g>
    </g>
</svg>