<svg width="11" height="15" viewBox="0 0 11 15" fill="none" xmlns="http://www.w3.org/2000/svg">
  <g clip-path="url(#clip0_1960_535)">
    <path
      d="M5.6687 0.818438C5.79256 0.867341 5.92518 0.899507 6.03882 0.967762C6.45761 1.21934 6.66152 1.60873 6.64692 2.12653C6.64546 2.18249 6.64035 2.23819 6.63792 2.27899C6.88832 2.39798 7.13895 2.49055 7.36526 2.62942C8.73793 3.47149 9.44482 4.74584 9.46794 6.44698C9.47792 7.19491 9.47305 7.9431 9.4677 8.69103C9.46599 8.91907 9.53194 9.10186 9.68475 9.26139C9.92249 9.50982 10.1573 9.76271 10.3814 10.0253C11.1041 10.8718 10.7099 12.2387 9.66967 12.4968C9.55262 12.5259 9.42925 12.5347 9.3088 12.5355C8.66127 12.5392 8.01375 12.5374 7.36647 12.5374H7.22704C7.1482 13.0782 6.91557 13.5167 6.50408 13.8345C6.18142 14.0834 5.81738 14.1982 5.42001 14.1799C4.67808 14.1457 3.91959 13.5651 3.76897 12.5374C3.72882 12.5374 3.68599 12.5374 3.64316 12.5374C2.98761 12.5374 2.33206 12.5389 1.67651 12.5371C0.822146 12.5347 0.203582 11.831 0.252736 10.9139C0.272446 10.5465 0.420396 10.2379 0.657407 9.97689C0.880547 9.73106 1.10223 9.48315 1.32999 9.2423C1.46869 9.09559 1.52977 8.92508 1.52953 8.71692C1.52904 7.86465 1.49546 7.00976 1.54462 6.16037C1.64219 4.48197 2.43475 3.27666 3.82712 2.5235C3.99551 2.4325 4.17729 2.36973 4.34665 2.29651C4.35371 2.13437 4.34057 1.96988 4.37171 1.81559C4.47367 1.31217 4.76665 0.992867 5.22826 0.852958C5.26233 0.842758 5.29542 0.829683 5.32901 0.818176C5.4424 0.818176 5.5558 0.818176 5.66895 0.818176L5.6687 0.818438ZM5.49983 11.6239C5.63731 11.6239 5.77504 11.6239 5.91253 11.6239C7.04551 11.6239 8.17873 11.6234 9.31172 11.6247C9.46307 11.6247 9.60032 11.5899 9.71444 11.4774C9.94439 11.251 9.96459 10.8849 9.75021 10.6383C9.52926 10.3841 9.30198 10.1361 9.0713 9.89216C8.76275 9.56605 8.61577 9.17483 8.61845 8.71038C8.62258 7.96664 8.62429 7.22289 8.61674 6.47941C8.61431 6.23725 8.59776 5.99195 8.55834 5.75371C8.21451 3.67259 6.05367 2.43773 4.26148 3.31824C3.02946 3.92364 2.40336 4.98539 2.38 6.44306C2.36783 7.19962 2.37488 7.95644 2.37878 8.71299C2.38121 9.17718 2.23302 9.56866 1.92447 9.89425C1.7079 10.1226 1.49571 10.3561 1.28716 10.593C1.22463 10.6641 1.16404 10.7473 1.13119 10.8373C0.992483 11.2183 1.26721 11.6223 1.66337 11.6229C2.94211 11.6247 4.22085 11.6236 5.49959 11.6236L5.49983 11.6239ZM4.65082 12.5421C4.7119 12.9581 5.11024 13.2814 5.53219 13.2672C5.9247 13.2542 6.31112 12.9105 6.34299 12.5421H4.65082ZM5.20904 2.11345H5.79378C5.79889 1.8726 5.66652 1.71987 5.47866 1.73347C5.29835 1.74655 5.18446 1.90659 5.2088 2.11345H5.20904Z"
      fill="black" />
  </g>
  <defs>
    <clipPath id="clip0_1960_535">
      <rect width="10.5" height="13.3636" fill="white" transform="translate(0.25 0.818176)" />
    </clipPath>
  </defs>
</svg>