<svg width="15" height="8" viewBox="0 0 15 8" fill="none" xmlns="http://www.w3.org/2000/svg">
<path d="M13.9555 6.31972L13.9551 6.31943C11.934 4.56766 9.92322 2.81585 7.90194 1.05296L7.90164 1.0527C7.76006 0.929709 7.59218 0.85376 7.41043 0.85177C7.22772 0.84977 7.0552 0.922804 6.90638 1.05333L6.90638 1.05332L6.90496 1.05459C4.94527 2.80678 2.99595 4.55893 1.03648 6.32188L1.03564 6.32265C0.867292 6.47585 0.792503 6.6665 0.800589 6.85764C0.808422 7.04283 0.892983 7.21199 1.01225 7.33773C1.24903 7.58736 1.68135 7.71196 2.0353 7.39752L2.0353 7.39752L2.03577 7.39709C2.98598 6.54749 3.87012 5.79857 4.75458 5.04937L4.8305 4.98505C5.69925 4.24912 6.56999 3.51028 7.50234 2.67533C8.33269 3.39455 9.08609 4.04262 9.82835 4.6811C10.8379 5.54947 11.8267 6.4001 12.9605 7.38785L12.9606 7.38789C13.3182 7.69924 13.7514 7.57773 13.9894 7.32867C14.1089 7.20348 14.1936 7.0345 14.1997 6.8494C14.2059 6.65802 14.1272 6.46922 13.9555 6.31972Z" fill="#444444" stroke="#444444" stroke-width="0.4"/>
</svg>
