<svg width="39" height="39" viewBox="0 0 39 39" >
  <circle fill="#FFF" cx="19.5" cy="19.5" r="15.5" />
  <path fill="#000" d="M11.652 19.515c-.035 0 .38.872.392.872.909 1.606 2.66 2.605 5.613 2.882-.421.311-.928.902-.998 1.586-.53.333-1.596.444-2.424.19-1.162-.358-1.606-2.597-3.345-2.277-.376.068-.301.31.024.515.53.335 1.029.753 1.413 1.642.296.683.917 1.903 2.882 1.903a8.89 8.89 0 0 0 1.325-.09s.015 1.743.015 2.42c0 .783-1.083 1.003-1.083 1.379 0 .149.358.163.646.163.57 0 1.754-.463 1.754-1.276 0-.645.011-2.816.011-3.196 0-.83.457-1.093.457-1.093s.057 4.43-.109 5.026c-.194.698-.546.6-.546.91 0 .464 1.427.115 1.9-.903.365-.791.205-5.14.205-5.14l.39-.007s.021 1.99.008 2.9c-.014.942-.08 2.133.495 2.695.378.37 1.6 1.018 1.6.425 0-.344-.67-.627-.67-1.558v-4.287c.536 0 .455 1.41.455 1.41l.04 2.619s-.119.954 1.06 1.353c.415.142 1.304.18 1.345-.058.042-.238-1.07-.592-1.08-1.33-.007-.451.02-.714.02-2.673s-.27-2.683-1.21-3.26c2.903-.29 4.7-.99 5.576-2.864.068.002.358-.875.32-.875.196-.707.302-1.544.323-2.535-.005-2.687-1.326-3.638-1.579-4.084.374-2.035-.063-2.96-.265-3.278-.749-.26-2.603.667-3.617 1.319-1.652-.471-5.144-.426-6.454.12-2.416-1.684-3.695-1.426-3.695-1.426s-.826 1.442-.218 3.553c-.795.987-1.387 1.685-1.387 3.536 0 1.043.127 1.977.41 2.792zm8.024 18.789C9.003 38.304.35 29.729.35 19.152.351 8.574 9.003 0 19.676 0 30.348 0 39 8.574 39 19.152c0 10.577-8.652 19.152-19.324 19.152z" />
</svg>
