<svg width="14" height="14" viewBox="0 0 14 14" fill="none" xmlns="http://www.w3.org/2000/svg">
<path d="M7 0C10.8555 0 14 3.14453 14 7C14 10.8828 10.8555 14 7 14C3.11719 14 0 10.8828 0 7C0 3.14453 3.11719 0 7 0ZM7 12.6875C10.1172 12.6875 12.6875 10.1445 12.6875 7C12.6875 3.88281 10.1172 1.3125 7 1.3125C3.85547 1.3125 1.3125 3.88281 1.3125 7C1.3125 10.1445 3.85547 12.6875 7 12.6875ZM8.09375 9.1875C8.44922 9.1875 8.75 9.48828 8.75 9.84375C8.75 10.2266 8.44922 10.5 8.09375 10.5H5.90625C5.52344 10.5 5.25 10.2266 5.25 9.84375C5.25 9.48828 5.52344 9.1875 5.90625 9.1875H6.34375V7.4375H6.125C5.74219 7.4375 5.46875 7.16406 5.46875 6.78125C5.46875 6.42578 5.74219 6.125 6.125 6.125H7C7.35547 6.125 7.65625 6.42578 7.65625 6.78125V9.1875H8.09375ZM7 5.25C6.50781 5.25 6.125 4.86719 6.125 4.375C6.125 3.91016 6.50781 3.5 7 3.5C7.46484 3.5 7.875 3.91016 7.875 4.375C7.875 4.86719 7.46484 5.25 7 5.25Z" fill="#979797"/>
</svg>
