<svg width="3" height="11" viewBox="0 0 3 11" fill="none" xmlns="http://www.w3.org/2000/svg">
<path d="M0.752187 7.92242L0.242188 4.21642V0.0344238H2.75819V4.21642L2.24819 7.92242H0.752187ZM2.69019 9.19742C2.71285 9.36742 2.72419 9.52042 2.72419 9.65642C2.73552 9.78109 2.74119 9.90576 2.74119 10.0304C2.74119 10.2458 2.72419 10.5178 2.69019 10.8464C2.48619 10.8804 2.28785 10.9088 2.09519 10.9314C1.90252 10.9541 1.70985 10.9654 1.51719 10.9654C1.33585 10.9654 1.14885 10.9541 0.956187 10.9314C0.774854 10.9088 0.587854 10.8804 0.395187 10.8464C0.372521 10.6878 0.355521 10.5461 0.344187 10.4214C0.332854 10.2854 0.327188 10.1551 0.327188 10.0304C0.327188 9.91709 0.332854 9.79242 0.344187 9.65642C0.355521 9.52042 0.372521 9.36742 0.395187 9.19742C0.769188 9.12942 1.15452 9.09542 1.55119 9.09542C1.92519 9.09542 2.30485 9.12942 2.69019 9.19742Z" fill="white"/>
</svg>
